<mxfile host="app.diagrams.net" modified="2021-11-08T22:49:13.304Z" agent="5.0 (X11; Linux x86_64) AppleWebKit/537.36 (KHTML, like Gecko) Chrome/89.0.4389.116 Safari/537.36" etag="pimMabgRvmff03jG3YeZ" version="15.7.0" type="github">
  <diagram name="Page-1" id="edf60f1a-56cd-e834-aa8a-f176f3a09ee4">
    <mxGraphModel dx="1186" dy="660" grid="1" gridSize="10" guides="1" tooltips="1" connect="1" arrows="1" fold="1" page="1" pageScale="1" pageWidth="1100" pageHeight="850" background="none" math="0" shadow="0">
      <root>
        <mxCell id="0" />
        <mxCell id="1" parent="0" />
        <mxCell id="kbTYuHjdxB3AZq6WOcbB-75" value="" style="edgeStyle=orthogonalEdgeStyle;rounded=0;orthogonalLoop=1;jettySize=auto;html=1;fontSize=11;" edge="1" parent="1" source="kbTYuHjdxB3AZq6WOcbB-1" target="kbTYuHjdxB3AZq6WOcbB-4">
          <mxGeometry relative="1" as="geometry" />
        </mxCell>
        <mxCell id="kbTYuHjdxB3AZq6WOcbB-1" value="C" style="ellipse;whiteSpace=wrap;html=1;aspect=fixed;" vertex="1" parent="1">
          <mxGeometry x="480" y="80" width="40" height="40" as="geometry" />
        </mxCell>
        <mxCell id="kbTYuHjdxB3AZq6WOcbB-7" style="edgeStyle=orthogonalEdgeStyle;rounded=0;orthogonalLoop=1;jettySize=auto;html=1;fontSize=9;" edge="1" parent="1" source="kbTYuHjdxB3AZq6WOcbB-4">
          <mxGeometry relative="1" as="geometry">
            <mxPoint x="500" y="300" as="targetPoint" />
          </mxGeometry>
        </mxCell>
        <mxCell id="kbTYuHjdxB3AZq6WOcbB-4" value="&lt;font style=&quot;font-size: 9px&quot;&gt;int tipo,valorMulta,clausura&lt;br&gt;int sumaL,sumaM,sumaG&lt;br&gt;char motivo[500]&lt;br&gt;char gravedad&lt;/font&gt;" style="shape=parallelogram;perimeter=parallelogramPerimeter;whiteSpace=wrap;html=1;fixedSize=1;" vertex="1" parent="1">
          <mxGeometry x="430" y="160" width="140" height="90" as="geometry" />
        </mxCell>
        <mxCell id="kbTYuHjdxB3AZq6WOcbB-5" value="" style="shape=image;verticalLabelPosition=bottom;labelBackgroundColor=#ffffff;verticalAlign=top;aspect=fixed;imageAspect=0;image=data:image/png,iVBORw0KGgoAAAANSUhEUgAAA1oAAAEaCAIAAACHB7GMAAAgAElEQVR4AeydeVxVxf//3+wohiwuuXxMUVATUtMUxA0VNTFA3IDox6IpoLKon8QszBBB3Eozd8H0oyaZmnsafRI3QumDgriQqLikoIggss/v8WhqvuM5985dQAR73z90zizvec/zPefeF+ecmQMEP0gACSABJIAEkAASQAL/YALwDx47Dh0JIAEkgASQABJAAkiAoBzESYAEkAASQAJIAAkggX80AZSD/+jw4+CRABJAAkgACSABJIByEOcAEkACSAAJIAEkgAT+0QRQDv6jw4+DRwJIAAkgASSABJAAykGcA0gACSABJIAEkAAS+EcTQDn4jw4/Dh4JIAEkgASQABJAAigHcQ4gASSABJAAEkACSOAfTQDl4D86/Dh4JIAEkAASQAJIAAmgHMQ5gASQABJAAkgACSCBfzQBlIP/6PDj4JEAEkACSAAJIAEkgHIQ5wASQAJIAAkgASSABP7RBFAO/qPDj4NHAkgACSABJIAEkIBIDqanpx9Q73P//n0e5a5duz788MNDhw7xmeK0vK9Lly4Jmhw5ckTi2uPHjy9fvizJpIdHjx4VmJIX3bp1a/78+aWlpfKia9euKeziwYMH8sqYgwSQABJAAkgACSCB+k9AJAdTUlIiIyONjY3h70+rVq1m/vnx9fUdPHiwrq4uLTlw4AAbampqKs3U09O7fPkyyxcnzp49O3/+/Ndee+3vrsDOzk5Zk5SUFFYNAN566601a9YUFBRcuHAhLi6uVatWrFRHRyckJCQxMVGZKUn+qVOnJkyYoK+vDwDFxcWSUkLIhAkTmHGW0NfXz8/Pl1fGHCSABJAAEkACSAAJ1H8CIjlIvZ86dSrTPdHR0fyQbt26NWDAAADg5WBiYiKrr+lluVmzZhkYGLDmv/zyC98dS3/wwQe85ktJSWFFhJBNmzYxCyNHjuSLlKXLy8u3bdvWu3dv1lChHKyqqrKwsODr0PSIESOUWRbkp6WlzZ4928fHZ9myZcnJyUVFRUuXLhXUr8uijIyMFStWjB49mnVaXFw8cuTIZcuWsZyGm3gFxqJyCOXl5eHh4evXr2+4Yaq556WlpYsWLQoODh44cGBUVFRFRQVvc//+/Z6enuXl5YSQ4uLiffv2+fv7//jjj3wdlWmVgVBpQf0KBQUFu3bt8vT0TE9PV7+V+jXrcizqe/UK1HzRgWu4iA4cOBAeHk5/BJ88eSIfyIULFyIiIiZNmvTRRx/9/vvv8gqYU4sEVMvB+fPnMwG0du1aSd8PHjywsLDg5WBxcbG9vT0AuLi4SL5/JW3lhzExMePHj9fT06M9jhs3Tl7n/v37b731Fn+V7o8//uCrHT58mDns5+fHFylL//zzz9999921a9d69OjB2sqvDp45c6Z169b9ZZ/vvvtOmWVl+atXrzY0NFywYEFycvKWLVv69u0LAF26dFFWvy7zT5w48dFHHwFAkyZNWL8XL14EgHfeeYflNNzEKzAW8RAqKio8PDx0dXXXrFnTcMNUQ88rKiqGDh26Y8cOQoiXlxcAJCcnM5vfffedvr6+g4NDZWUlIeSrr76ysrICAE3PZXEgWHc1T5SWlsbGxrZo0QIAzp49W3ODcgt1NhZ5169wTh0EriHSKysrmzBhgq6uromJCf3Nbdu2reR24tq1a83MzJKTk6urq3fv3m1paXn+/PmGONiG4rNqOfjZZ58xhcTLwZMnT9JB+vr68nKQZj579kwLBLGxsbNnz/bw8KA96uvr5+bmSuwsXLjwiy++8PT0ZF5JbtQeOXKEFakpB1kXYWFhrK1cDs6fP3/Dhg2sstaJnJwcQ0PDwMBAZqGiosLPz++1115jOS89YWlpyctBQsjp06fv3bv30h2rFQdegbEoGwLVgra2tmfOnKkVVg3UyPfffw8AdMaWlJQcPHiQKj9CyO7du01NTRcvXsz/vTpnzhwt5GAdnxc+Pj4vTg5qN5Znz55JfsUb6IR5oW5rGrhapFqLpmoR0bx580JCQuiPbEZGRr9+/QCgb9++rIvz58/r6+vzd8yCg4MtLCzwMX2GqNYT2svBrl27Um/Onj3Lln08evToNvdRuBpDMAYqB5OSkpgmmzdvHl+/oqLCxsamoKDgBcnBTz75hHUtl4N9+/b95ptvMjMzi4qKeK/49E8//XT8+PHq6mo+U5Letm0bAHz++ed8/rNnzzp06CCwzFeug3T79u0lcrAOOsUuakigsrIyICAgOjqa3gOtobUG3dzX11fhIx8HDhwYPXr09evXJaOjf/dqenVQYuRFH06ePPmFykEt/A8MDNy5c6cWDf9RTTQNXC1SrUVTtRWy4uLi9957j/+VvH//Pl05wJaljhs3DgBu3rzJOv35558BICYmhuVgonYJaCkH09LSFGqFvXv3vvPOO0xRHT9+XCN3qRwkhNja2lIjzZs35zVlYmLi5MmTCSF1LwcfPnzIls7o6ura2touX768sLCQHyB7znLSpEl8viS9efNmAOjYsaNE/C1cuPDatWuSyi/rEOXgyyKP/dYKgaFDhyqUg8qMoxxURkaQv3LlSgBAOShARIs0koO1SLUWTakco/oVMjMz5fcuhgwZAgCZmZmEkKdPnxoYGLRv3563+ezZM0NDwzfeeIPPxHQtEtBGDmZlZfXo0UOhHCSEXLt2reZycO3atczIN998wwY8aNAg+vRA3cvBnTt3MpdY4l//+ldGRgZzr1GjRrTIwMCgqqqK5UsS169fpytm3n777ZycHEkpO8zJyZkyZcqoUaM6dOjg4eFx69YtVsQnysrK9uzZ4+HhERcXl5SUZGVlZWNj8+jRI1pHYCQhIcHT03P27NlDhgzx9fWVaFOJHExPT58zZ06/fv1Y1/7+/oMGDfLy8vL58zN06FB7e/u5c+eyCmL7rNquXbucnZ3t7e0PHjxICMnOzp4/f779nx/q0v3799etWzd8+PDo6OisrCw3Nzdzc/O33347LS2NGVGzL1pfMhZ17JeUlISHh0+aNCkqKopCo99Z27dvd3Fx+fLLL0+cOOHs7GxmZmZvby/ZYkkQAkLIkydPIiIi/P39x44d26tXr02bNrFBCUolQ6BNCgoKQkJCpk2bNm7cuP79+0dGRrI/pdQZI98vTSvzXFNrtRJiQoiaUY6Pj3d3d6ervlxcXNzd3RcsWEBHJLBA5WBiYuKXX37ZqVOnpk2bjhgxgp3dys4yhYEQx1TggzwERUVFISEhPj4+AQEBQUFBY8aMkVwdVBYjiamnT5+qnKuSsaiMckJCQpMmTQCgd+/e7u7u8fHxKgOtDKM4uArPPskAFR4eOHBg4MCB9vb2bm5u+/fvp3VOnz7t5ubm6uqq8LtX0JeaqGkvWgdOTpUaFPeucMopM6VsBgqiU+vfLfJ4DRs2rFGjRiUlJYSQn376CQAGDx4sqdauXTsAwPvFEiy1daiZHOzQoUOnTp3oUg9lcjA/P5+pJa2vDhYXF5uZmVE7bPnChQsX7O3t6cjrXg76+fmxcfGJFi1asGuEdEUIAPTs2VMcoeXLl1MjjRo1ioqKKisrk9TPzs7u168ffSwyNzfX3Ny8WbNmeXl5kmqEkK1bt/bs2RMAfHx8QkJC6FqcrKwsKq2UGaF/NdJbZkVFRcbGxhMmTOCN83Lw1KlTM2bMAIC2bduyOu7u7gUFBfTw9u3bTZs2NTY2Zk8RqbTP7BBCqPGEhASW2b17dwB4/PgxISQtLe39998HgGHDhvn4+Bw9enTjxo36+vpdunShtxs06ks+FpX2CSEzZ8709PSk7l28eJHOwx07dtDV6EOHDvXy8tq0adPs2bP1/vywNfXiOD569Mja2po9euvt7Q0Amzdvph0pK5UPgRCSk5PTtm1btnbkwoULFhYWtra2dL2eOmNk8GlC4LkW1moYYkKIRlEmhPTv359NIToisQUqBwcMGODm5rZq1Sq6+qRJkyb0coXCs2z79u3y80JZ1NTxQRKC/Px8Ozs7tpw/PT29cePGvBwUxEhiSuVclU8qdaK8cOFCydVBcaAVYszKyhKHRuHZJxmgssNFixYBwP/7f/+PrzB27Ng9e/bwOSytrC/1URNCahg4OVVx74IpJzclQK0sOrX+3cJos0RlZWWLFi3Ys/4bNmwAADc3N1aBJt566y0AOHfunCQfD2uFgGZycPHixb/99ltUVJSJickLlYOEkPDwcKa66Eq6qVOnsiuFdS8HS0pKcnJyTpw48eWXX3p4ePAb4rBrD7m5ucHBwdOmTVN2JY+P2Y4dO5o3b07H2LVrV/7ieXV19YABA7Zv387qBwUFAcBnn33GcvgEPXnYfjdUAYiNuLm56evrMz3n6OhoYWHB2+TlICGkqqrKyMiIl4O8e6NHjwaAJUuWMAsq7bOahJClS5cCAC8HBw8ezP+W0+VBHh4e7HGTkSNHsidLNOpL4VjE9gkhXbt2ZV9VhBD2SOvGjRsBIDg4mA3nq6++AoBevXoRQsQhIIRMnDjR39+ftU1JSdHT02NRFpTKw+Hi4mJjY8P4EEJWr14NANOmTaP2VY6RuaGO5xpZq3mICSGaRlkuB8UWqBz85JNPGIfQ0FD+N0nhWSYPhCBqmo5i+vTp1tbWfEzpMjv6fahydrGB0IR4rmp3XsjVhspzWSFGcWiUnX2SASo8LCwsNDU1NTMzY3c/ioqKOnXqxNYVSVop7EtT1DUMnISqyt4FU05iSuUMVBid2v1ukQCnh3v37jU1Nb19+zY9jIuLk4t4Qgjd2O77779XaAQza0hAMznIVhZv2rTpRcvBa9eu6ejoULXk4+NTUFDQrl07tmBZCzloZWXVjPvY2NjI2YmXkvD179y5Q2/cAICzszNfpH760aNHkyZNomM0MjJij7FnZ2cDgJOTk/vfnx49ehgbG7u6uio0Tm9kR0VF8aViI3fv3k1NTaX1Hz58aGdnp6uryzeXyEFCiJmZGS8HWWW6MqZv3778N6xK+6y5Olrh+PHjABAWFsZaBQQEAADdclKjvqgFyVjE9gkhI0aMAIBPP/2U3n5l14MTEhIAgF/+VlpaSm9TPnnyRByC27dvS66sEELoBVFCiLhUEg5aeeLEiYwPNWVgYGBiYkL1hMox8m3FnhNCNLJW8xATQjSNslwOii3Inx2kVI2MjOiDHwrPMoWBkDxLx2Kq0SgePXpkYGDA/6VBCOEfQVMZIz6g9G6sYK5qd17I1YZKOagQozg0ys4+yQCVHdI14ytWrKAVtm7dGhERoayywr40Ql3zwEmoinsXf1FITKmcgfLo1Pp3i5x8eXl5t27ddu/ezYro9+r777/PcmjCwcEBAH744QdJPh7WCgEt5WBVVVWrVq14D9ifsLVys5haHjVqFJVKhoaGH/35YT1qIQfZ3Wdqs1mzZswaS6gvB2kT+sd6DfcLTEpKatasGQA0atSI3r3du3cvALD12sw9ZQl6Di9cuJCvoI6R1NTUiIiIpUuX0tvNfHM15eD9+/ctLS2NjIwUeiuwz/el8idELj7430VqSs2+aGWVclBi/+LFi5aWlgDQqVMn+owjtSOXg4SQgQMHAsCFCxfEITh48CAAJCUl8ShYWlwqUSFHjx4FAG9vb9acJjp06AAAdH2SOgxZc7HnCuWghBgzRRO1EmJCiPpRlstB6okyC3I5SAih1+9v3LhBCFF4lkkCoTJqYh94aMnJyQAgOal5yCpjxFtTKAf5uUora3peyNWGykArwygIrrKzTzJAZYf37t0zMjJq164d3Vfo3Xffpc/SKKyvsC+NUNc8cBKq4t7FU05iig1Z2Vkgj06tf7cwH1ji3//+NxPrNPPkyZMAwL8Hgea/+eabAMDfSWNGMFFzAlrKQUJIUFAQ637RokXs1mEtykF+Q2ldXV1+U3It5OBbb73VnvsofLxPUzlIN24dOnQoQ6EyUVZWJldOv/32m6mpKQDQu5Bff/01ABw+fFilNVpBfg4TQsRGCgsLfX19/fz86H469OYs352acpBuBxAbG8u3JYSotM/XV/kTIpYyGvVF+9X0Z48+nDd8+HD6t0RQUBD9+0ehHKRM8vPzxSGgpfwtcp6JuFSiQvbv3w8AgwYN4i0QQhwdHQGAbt4pZihpKPb8pchBTaMsl4NiCwrloL29va6u7tOnT9WUgyqjJvaBj8KWLVsAYNasWXwmLwdVxohvqEwOsrlKK2t6XsjVhspzWeGXlUosOTk58rNPMkDB4YcffggA//nPfx48eDBgwABBTYVnukaoax44CVVx7+IpJzGl8ptZHp1a/26RwI+Pj2dPW7Gie/fuAUD//v1ZDk20bt1aX1+f3feXlOJhDQloLwdZx/fu3TMzM2N/bymUg7///ru3t/fEiRPZUgPWnE+wjWZoZnV1tbW1Nf0BHjVqFF9TCznIN1eWFsjBixcv/vTTT5Lt3AoLCwFg5cqV1OC1a9e8vLw8PT2vXLmirIuqqqo+ffqwi6ms2sSJEwGA7lBz4MABAOAFN62Wnp7OblOyhsp+qMRGnJyc2rVrx27vaicHv/vuO/qqEmaHeaXSPqup3Z1E/ndRo75ov5r+7LFFiPv27aNXjKhYVygHBwwY0KJFC0KIOAT08TvJHV66Np8QIi6VyMGcnBwAaN68uSQQtra2ZmZmdMgayUGx5y9FDmoaZbkcFFtQKAe7devWuXNnClD+SymfSyqjJvaBGuTj5eLiwmfy015ljPiGyuQgm6u0sqbnhVxtaCcHxViUnX2SAQoOr169qqur26NHj6+++mrdunWCmgr70gg1PdFqEjgJVXHv4iknMUUIEaOWT/Ja/27h4e/du5ffjIIW0S+xdu3amZub8xt05OXl6ejo8Ltb8KYwXXMCquVgZGQkFWQAwNYtso4fP37cs2dPExMTFjaFcpDeiwQAtnk1s8AnFi5cyL+rgxDyxRdf0N7Z6ktaf/z48cwr9vwpLaIXz2mpZEEZ35fCNL9+hV/GS69dA0C3bt1OnDjB2m7ZsmXAgAHs3QbsHXe2trasjjzx5ptvyt9uQv9+Xb16NSHkzp07hoaG+vr6/NLse/fuTZ06VW5NmRwUGMnNzZUsf+7Tpw8A8CJVfnWwadOmbdq0YQ48fPiwZcuWhoaGbDMOQsiqVauePn2qjn1mh7YCAP4So52dHQCw7XLkUoY+c3n27FlN+6L9SsYisE/rf/jhh8zh8+fPs2U9cjlYVFRkamo6f/58lXHMz883MTHR0dE5cuQIM37lyhX6DKi4lBDCD6G6uppGkL+iXFxcbGJiEh4eTo2rHCPzQaXnCuUgiwhvh6VXrVqldYgJIVpEmV4ZZYulVFqQy8HHjx83atSIqQf5LyUdHR8IcdRU+sBwEULy8vKMjIz09PT4nXjp/gb0K0hwgvN2WFo8V+VjUSfKMTExALBlyxbWi8pAyzGqxKLs7KOdXrt2jX0DMzfkCfpe03bt2vGPcsqrKexLI9Q1D5yEqrh38ZSTmFKJWh6dWv9uYcyPHTvGvp1YZkJCAn24hQqP3377jRXt3r0bALZu3cpyMFG7BFTLQfbKOLqVCeu+tLR07dq1rVu3BgBesCuUg3R/BADQ19cXnLoeHh6dO3dm60Xo4/BNmjRp3749k5t0BVzXrl2ZHJSsM1qwYAEr6t69O9+QOa8wUVVVxe+hze8et2PHDmZTR0fH19f322+//eSTT/r163f37l1mjQ1TvO+gq6urkZER/zzsrVu3LC0tO3fuzC6D0/0amjZtGhoampiYuGTJkh49eii7trpp0yb5fSW2gYvcCP0zCwC2bduWkZERExND43ju3LmrV6/S4TRr1kxfX5/RKy8v19XVNTU1ZZKRvnYpOjqaDb+iomLYsGH0l4wuAxLYZ60IIVRtW1lZnTx58tKlSzNnzqTPiGzfvp3ey963bx8ATJkyhbVyd3cHgJ9//lmdsbBWNCEfi8A+bdKpU6eLFy/SdG5uro6ODlXq9Cd2zJgxDNTHH3/csWNH9jp2cRyjoqLoSTF58uQNGzZERkY6ODgwBSMolQ8hLS3N2NjYwcGBnT5xcXFWVlbME5VjlFASe66ptZqEWIsZRQjp0qULALC3j6icJ59//jkA8H+nhYeHOzs7swmv8CyTB0IQNZU+SEJAXx1uZ2dHHy9JSUl5/fXXASAgIID+DSaOkcSayrkqH4vKKG/duhUAvLy8SktL6dYtKgMtx6gSi7KzjxBCXyuqzuM6GRkZCp+vlVBS1pdGqGsYODlVce+CKScxpRK1PDp0q6/a/W6hr0M0NzefMGGCJ/dxdHTk98do164d296rsrKyX79+/fv3F+gHSSjxUFMCIjm4fv16dlWPiaE333zTwcHhX//6F3tFB7+ZBd1yiVVmF7dmzpxJMyUX/5i7K1eupFsKAUDr1q3Hjx/PioKCgvj30kRERHTq1Il1AQAGBgbOzs45OTmJiYmOjo5sPTKt07FjR/oiE2ZQnjh58uT7779P32HPLDdq1MjNzW39+vWEkMrKytmzZ9M9VwGgcePGb7/99ubNm5kIoDbZxUXJekBJj7NmzXr33XcHDhzo6ur673//e+rUqWZmZqNHj6ZPrNPK5eXlYWFhhoaG1J/BgwfzF+F4g/Hx8Z07dwYAS0vL5cuX8295FhiZN28etdy9e/e0tLTo6GgAMDc3P3HixPnz5wMDA2lpYGBgSkpKcnIyXckLANOnT09PT6fbhOro6IwdO9bT03PixIkuLi5t2rR58803qW8C+7zzLD19+nTao7W19dmzZz09Pa2trefOnXvjxo3Tp0/TG3+WlpZ0L5tVq1ZR5e3k5JSamqpRX/KxqLRPCOnWrVv37t3XrVu3detWZ2fnxYsXU8/pT+y7777bt2/fGTNmuLm5vffee/xLtAUhoPu5xMbGsnnl6up6584dxqS6ulphqXwItElmZqaDg0OfPn1iYmKCg4O9vb2ZslRnjKxfmhB4roU1QkhNQkw391E2YyWenzt3LiIiglYePnz45s2b6Xpw8Ty5ffv2mDFj2rRpM3bs2I8++mjcuHHz589nN98VnmUKA6EsatRJsQ+SgVRUVMyZM8fIyAgATE1NZ8yY4e/v37Fjx08//ZReQRHESGKK3SxWNlflY1EnyoWFhfRrs02bNqdOnaKdCgKtEKPK4Co7+wghs2fPpoHmnyyXj53mdO3a9ccff1RWSvOV9aUR6hoGTk5V3LtgyslNCWagsugQQmr3u+Xy5cuSlZ00iADw7bffsgDduXNn4MCBAQEB//nPf9zc3Dw8PPhbdqwaJmqLgEgOatcHf3WQ7o9F7fz650c7m/WkVVlZ2fXr12/cuMEuGMgdU2eY169fp79P1dXVV65c+eWXX5Rts15WVpaRkcHLC3mPKnOUGbl9+za/P2JOTg7dEV6lQTUraGr/3r17V69epWw1Pe017UvNIbBq9JJbXl7ehQsX+JdZsxtwz549y8jIoGsOWCuWUBYCWqGysvLSpUvszjhrpU6ppDIhpKioKDMzU/KQq7yamjliz9U0wqrVJMR0850azlh15klubi67psg81zQhiKk6PvDdlZeXZ2Zm0qml8ItCzRipOVf5rtVJl5SUZGVlSf4w1iLQAizKzj7qXl5e3qBBgxSS4f1/8uRJ165dJX7yFWha3JeaqKmpmgROIVVx78qmnNyUALUcCJ9Tu98tvGVB+u7du//9738lj4QJ6mOR1gRqRw4WFxcPHjy4a9eumZmZvBxkj+Vq7R82RAL1mQD7ia3PTqJvSIBdHeT3yHw1sJw7d27mzJkqx7Jy5cpXb+wqR40VkID6BERyMDY2dpJ6H7YFgL29PX25EwCYmZmp1/pVrrVv3z71g4E1GxyB+Ph4AIiLi2twnqPD/zQCr+RczcjIWL58ubJQlpWVbdy48ciRIydPnrSxsWHPTiirj/lI4J9MQCQH6dI8dlMfE1oQoCtM/8kz7NUeO30jKnsR3Ks9WBxdgybwD5yrbEcIHR0dyatiGnQo0Xkk8CIIiOTg9OnTB6n9eeedd1q2bNm0aVNTU9M2bdr07t1b7aavcsX4+PgXETa0WR8IrF+/3tXVdeTIkS4uLjExMYLNJuuDt+jDP5nAP3OuVldXf/755xMmTOC3cfgnTwMcOxIQEBDJQUEzLEICSAAJIAEkgASQABJ4NQigHHw14oijQAJIAAkgASSABJCAlgRQDmoJDpshASSABJAAEkACSODVIIBy8NWII44CCSABJIAEkAASQAJaEkA5qCU4bIYEkAASQAJIAAkggVeDAMrBVyOOOAokgASQABJAAkgACWhJAOWgluCwGRJAAkgACSABJIAEXg0CKAdfjTjiKJAAEkACSAAJIAEkoCUBlINagsNmSAAJIAEkgASQABJ4NQiokIPFxcUjR45ctmyZpqMtLS1dtGhRcHDwwIEDo6KiKioqNLVQk/pau12TTrVue+zYsbXPfzZt2rRnz55ff/21vLxca7O13rCgoGDXrl2enp7p6elaGNc6KPV8LpWXl4eHh69fv14LJg29SUMcew2ncUZGxooVK0aPHl2XsdP63BE4+SJsCrqrxaIaRrAWPUFTSOBVIqBCDl68eBEA3nnnHY3GXFFRMXTo0B07dhBCvLy8ACA5OVkjCzWsrJ3bNexU6+ZPnz79+eefGzduDABdu3ZdunTp/PnzJ02aZGNj06hRIw8PjzNnzmhtvLYalpaWxsbGtmjRAgDOnj2rhVntglLP51JFRYWHh4euru6aNWu0YNKgmzTEsddwGp84ceKjjz4CgCZNmtRl7LQ7d8Qevgib4h5rpbSGEawVH9AIEnglCaiQg4SQ06dP37t3T6PBf//99wBAW5WUlBw8eLCyslIjCzWvrIXbNe+0Jhb69esHAAsWLGBGqqur9+3b16ZNGwCYM2dOVVUVK3pZCR8fH63l4Ks3l6gesrW1rQ96nU6JZ8+eXb58uQ6mRx2PvXbHVcNpbGlpWcdyULtzR+U0qNeWtuEAACAASURBVPUvydoNk8B/jSJYZ14JHMYiJFD/CaiWg1qMwdfXFwCKi4u1aPuPbTJs2DAAWLhwoYTArVu3qCJcsWKFpKjuDydPnlwTOaiFw/V2LlVWVgYEBERHR9erG/qBgYE7d+7UgrNGTep+7LU7rhpO4/bt29e9HNQoQC+rcu2GSTAKjSJYZ14JHMYiJFD/CbwQOTh06FCUg5rGXpkcJIT88MMPANC4cePr169rarZ262v0LVwrXeNcUh/jypUrAaAO5KD6LtVKzVofVw2nMcpBhWGt9TAp7IVmqh/BuvRK4DAWIYH6T0CFHExPT58zZ06/fv3oSO7fv79u3brhw4dHR0dnZWW5ubmZm5u//fbbaWlptEJ8fLy7u7uFhQUAuLi4uLu7L1iwoKysbM+ePR4eHnFxcUlJSVZWVjY2No8ePaJNEhISPD09Z8+ePWTIEF9f36KiIkbtyZMnERER/v7+Y8eO7dWr16ZNm1gRIURQKnGbtiooKAgJCZk2bdq4ceP69+8fGRlZWlpKi1SOixCSk5MzZcqUUaNGdejQwcPD49atW8yZkpKS8PDwSZMmRUVF0bGwIvUTAjlICHnjjTcA4JNPPqEGBc4o7FHASsCfEFJUVBQSEuLj4xMQEBAUFDRmzBjJ1UFxc94ZSVBUMn+F5xKPhRAinj9qxjohIaFJkyYA0Lt3b3d39/j4eNqLYNo/fPgwPj7e1dV1+vTpeXl5gYGBbdu27dq167Zt2wghZ86cGTduXIsWLTp37pyUlMR8FhhkdVhCZZRVOqlsXOpPPHWmsZqQqbdyOShmIo4vYyWYCZJzhzV58uRJaGhoYGDgu+++O2TIkIULF+7bt+/IkSMJCQnOzs729vYHDx4khGRnZ8+fP9/+zw/7glVoUxkHlXFUFiZlBgWDZaPjE9p9ESnzSut4lZeXOzg4vPvuu9XV1bx7mEYCrwABkRw8derUjBkzAKBt27Z0qGlpae+//z4ADBs2zMfH5+jRoxs3btTX1+/SpQt/evTv3x8AHj9+TFtt3bq1Z8+eAODj4xMSEjJ+/Hg9Pb2srCxCCP3TjV70KioqMjY2njBhAm316NEja2vrAwcO0ENvb28A2Lx5s8pSudtUzLVt25Y973/hwgULCwtbW9snT54QQlSOKzs7u1+/fvn5+YSQ3Nxcc3PzZs2a5eXlUWdmzpzp6elJ0xcvXrS3t6dpjf4Vy8GAgAAAcHNzo1/uAmfknQpICvgTQvLz8+3s7Ni68vT0dLrehS0lETfnPZEHRSVz2vzVm0s8FpoWzB/xxJOYWrhwoeTqYE5OjmDap6enz5w5kyrIgICAQ4cOnTt3ztbW1sTEZNGiRWFhYWfOnElKSmrVqlXLli3pPXGxQYk/6pxZKs9NQoh8XOpPPHWmsUaQCSESOaiSiSC+EmIKa8rPHdqqqqpqwIABXl5e9JB+Qzo6OoaFhd24cYN+dSckJLAuunfvzr6WFdoUcFDnbJWHSWCQEKJwsMxbPlGTLyK5VzWJV25uro6OjpGRUUFBAe8hppHAK0BAJAcJIVVVVUZGRkwOEkKOHDkCAB4eHkz/jRw5EgBu3rzJcEh+wgkhGzZsAIARI0bQOlSEEULc3Nz09fXZqeXo6GhhYUHrTJw40d/fn9lMSUnR09P77LPP1CmVu+3i4mJjY8N8JoSsXr0aAKZNm0YNCsZVXV09YMCA7du3M2eCgoIAgDnTtWtXPz8/Vjpv3jyWVj8hloOffvopAFhbW6t0Rt6jgKSAPyFk+vTptEdm08PDg786KG7OWtGEPCgC5qztKzaX2Lj4hLL5o2ms5b98Kqd9VlYWADg6OjJ/1qxZAwAffPABywkNDQUAulxGpUHWiiVURlmlTfm4NJp44mmsKWS5HFTpv7L4MkQsoaym/NwhhBw+fBgA2GXgjIwMAPD19aXWli5dCgC8HBw8eDCTg/LvdpUcVMZREiaVBpUNltFgCXEExb8jEq8IITWM1y+//JKamsp8wwQSeGUIqJCDhBAzMzNeDh4/fhwAwsLCGAJ64SolJYXlyH/Cd+7cCQBRUVGsDk3cvXuXnVoPHz60s7PT1dUlhNy+fVtynYMQwi43ikupZd5tWn/ixIl8748fPzYwMDAxMaEaUTCu7OxsAHBycnL/+9OjRw9jY2NXV1dqcMSIEQDw6aef0rvPhYWFfEdqpsVycO7cuQDQrVs3lc5IuhOzUsafEPLo0SMDA4Pg4GDeoOSRHUFzvhVL80EhhAiYsyav2Fxi4+ITyuaPprGW/PKpM+1v3LgBAPwuevv27QOAiIgI5mF0dDQA7N69Wx2DrBVLiKOsjk3JuAgh6k88ldNYU8gSOaiO/8riyxCxhKCm5NwhhMTFxQEAv+Fl06ZNHRwcqDWVclDy3a6SgziO8ou4Kg0KBsuA1PyLSDJ5ajdevJ+YRgINnUAtyEGJRCCEKPsJly+bpfhSU1MjIiKWLl1K7ykTQg4ePAgA/BNLPGhxKa3Jf3sePXoUALy9vXkjhJAOHToAwLVr1xRKEzauvXv3AsClS5ckzdnhxYsXLS0tAaBTp070YR1WpH5CLAc/+OADelFWpTOSHtVhJedPCElOTpavdGZM+F4UNucrsDQfFDFz1uQVm0tsXHxC2fzRNNaSXz51pr1cDh44cEAiB2NjYwFg27Zt6hjkx0XTchnBzyJ1bErGxbpQZ+KpnMaaQpbIQXX8VxZfNhCWENSUnDuEEPo3NruFUlVVZWFhERAQQK1pKgdVchDHUS4HVRoUDJYBqfkXkWTy1G68eD8xjQQaOoGXLAcLCwt9fX39/PzorjT0dgYh5Ouvv5bc6eBBi0tpTf7bc//+/QAwaNAg3gghxNHREQByc3PF0oR2d/jwYUlz/jAnJ2f48OHw5ycoKIi/K81XE6QFcrCqqqpVq1YAsGXLFnWc4XsRs1LGnxCyZcsWAJg1axZvjf8hJ4QImvOtWJoPipg5a6K+HFTmjJiAuJS6wbtdw7nExiVJKJw/msZa8sunjqsayUF1DErGpTLK6tiUjEujiadyGmsKWSIH1fGfPh+p5veDwpkguZJHIZeXlzs5ORkbG58+fZoQ8uOPP7Zo0YItcdNUDqrkoKkcVGlQTSwqIyieD5LJU+vxkk94zEECDZTAS5aDTk5O7dq1Y5tUMzlIn1OR3N4lhNAreeJSGgn+JzwnJwcAmjdvzjqidWxtbc3MzGha8GVHr5cEBQVJYpyenk7vC+fk5NCiffv2NW/eHADE2lFihx4K5OA333wDAP3796+qqlLpjMS4mJUy/uxX3MXFhTcokYOC5nwrluaDwrrgHzyQ2NfoSrMyZ8QExKXUc97tGs4lhoJPKJs/msZa8sunjqsayUF1DPLjomnBmUUFgcpzUzIuQoiyWCvrXTCNNYUskYPqMFEWX7m3gpr8JGQNKyoqBg0a5ObmFhISEhkZ+eDBA1akqRxUyUEcR/nVQZUGBYNlo2DfEoIIiueDZPLUbrx4PzGNBBo6AdVysGnTpm3atGHjlH8pTJo0iV9ewK66sQUi7L6G5GZxbm4uAPTs2ZMZ79OnDwBUV1fn5+ebmJjo6OgcOXKElV65coU+fSgupfV5t6urq6llXqUVFxebmJiEh4fT+oJx3blzx9DQUF9f//jx48yZe/fuTZ06lR5++OGHLP/8+fP8KhNCyLFjxxYsWMB/U7PKfGLIkCHym7N0vw8zM7PXXnuNrr9W6Qxvky6rVEZSwJ8QkpeXZ2RkpKenxy8S8vPzA4ATJ07QFdbKwifxgR3yQWFf9LwcfOXnEkPBJ5TNH01jHRMTQy8hU+PqTHtlcnDOnDnMQ3azWB2DrBVLCM4sQog6NiXjEs9b1i9NqJzGmkKWyEF1/FcWX4mrhBBBTcm5Q9vOmDGDf2ibN7hq1SoAiI2NZZl2dnYAwHb4IoTwNlVyEMeRECIJk0qDgsEyn2v+RSTxqubxevr0aVlZGe8hppHAq0FAhRwsLy/X1dU1NTVldz/pk+ZTpkxh43d3dweAn3/+meV06dIFAPg9kzdt2iS/85iXl6ejo0MfS8rIyIiJiWndujUAnDt37urVq1FRUQCgr68/efLkDRs2REZGOjg4MIkpLpW7nZaWZmxs7ODg8OzZM+pnXFyclZUVW+MsHhfdtaFp06ahoaGJiYlLlizp0aMHextYp06dLl68SM3SnQiYcCwsLKSbs0jWZDBWLNG5c2cACA0NZTm//fZbaGiooaFhly5dfv31V5YvdoZVYwllrMT8CSH09ax2dnb0ucmUlJTXX38dAAICAjIyMlQ2Zw7QhDwoYua01as3lyRYCCGC+aNRrLdu3QoAXl5epaWle/bsofu8iKc9XY46ZMgQ5hV9Io39qUMIiYyMBAC6SZPK84jZYQmVUVZpUzIuTSeeeBoTQjSCTAhp1qyZvr4+e2mkSv8F8WWUaEJZTfm5Qx+w1tXVnTZt2tdff71jx44ffvjh5MmTbFvBkydPAoCVldXJkycvXbo0c+bMN998EwC2b99On8yR2xRzUBlHSZhUglU2WAmTGn4Ryb2qSbwKCwubNWvWvn17VITyMGFOQycgkoPJycl01TAATJ8+PT09/fTp0/RZLktLyyVLlhBCVq1aReWOk5NTamrquXPnIiIi6CN0w4cP37x5c2lpaXx8PNU6lpaWy5cvp8/qUXDz5s2jlbt3756WlkbXMJqbm584caK6ujo2NpburAsArq6ud+7cYbgFpXK3aavMzEwHB4c+ffrExMQEBwd7e3szcalyXOXl5WFhYYaGhtTbwYMHZ2RkMGe6devWvXv3devWbd261dnZefHixayooqKiffv2ALB06VKWKUkcOHDAy8uLWtbV1e3UqdMbb7zRqlWrbt26TZo0af/+/eyHhzYUOyMxTi/AKCMp4E8IqaiomDNnjpGREQCYmprOmDHD39+/Y8eOn376Kb1rL27OeyIPikrmr+pc4rHQtGD+aBTrwsJCKysrAGjTps2pU6eoccG0P3nypJubGwAYGhquWrWqsLDwwIED77zzDgBYWlp+/fXXpaWl33zzDV1x1a1bt8TEREKIwKB8aCqjrNJJ+mSYZFzqTzx1prH6kM+fPx8YGEhP1cDAQHZlTsxEEF8JMYU15ecObXXz5k16wY/6Q/997bXXvvvuO1ph+vTpNNPa2vrs2bOenp7W1tZz5869ceOGQpsCDurEUT79BAYJIQoHKwFCD2vyRST3SuUcFjiWl5fXuHFjS0tLfAWrwkhhZoMmIJKDdTOw27dvs8ef6bNEJSUlrOvKyspLly7xNzhYESFEXMrXZOmioqLMzEzt3jNbVlaWkZFBN6NmBgkh9IpjXl7ehQsX5F8TJSUldM9tvknN08qcUWZZGSsxf0JIeXl5Zmbm06dPCSHyW94qmyvz50Xki51RRoB6Ii5V6G1N5hJvUDx/CCHqx5pONsnfD/S1HFpPe95Vlq6tsTODYifl4xLHmjdL0+JprBFkuXGao4yJyvgyg+rXJITcunXL39//xo0bZ8+ePXr06Pfff//NN99ERkba2Ngwg/fu3bt69Sq9t8O2zWelChPqTzZ5c3mYBGA1GmxNvogUeiWYb2LH8vLytNtKTI4Lc5BAvSLw8uVgvcKBziABJIAE6j8BetFL4VZcKp9Lqf+jQw+RABKoewIoB+ueOfaIBJAAEqgRgcTERABYvXq1xMqxY8e+/PJLSSYeIgEkgARUEkA5qBIRVkACSAAJ1C8CDx48oM9TOjo6hoaGzp0798MPP3R2dl65cmX9chS9QQJIoIEQQDnYQAKFbiIBJIAEOAKFhYWrV6/28fFxdXWdOXPm5s2b2bJirhYmkQASQAJqEUA5qBYmrIQEkAASQAJIAAkggVeVAMrBVzWyOC4kgASQABJAAkgACahFAOWgWpiwEhJAAkgACSABJIAEXlUCKAdf1cjiuJAAEkACSAAJIAEkoBYBlINqYcJKSAAJIAEkgASQABJ4VQmgHHxVI4vjQgJIAAkgASSABJCAWgRQDv6FKTU1da2qz549e2jt4uLikSNHLlu2TC3GtVGpoKBg165dnp6e6enpmtr773//KxnZzp071TdSWlq6aNGi4ODggQMHRkVFVVRUqN+2hjVVci4vLw8PD1+/fn0NO6LNb9y48dNPP8lNHTly5Pvvv5fnq5Nz4MCB8PBwHx+fZcuWPXnyRJ0mkjqHDx8OCQnx8vJatGgRe8u2pI46h1qwunXr1nvvvUff2UUIyc7OPnr0qDp9YR0kgASQABJoWARQDv4Vrzlz5gCAg4NDcHDwxx9/7OTkBABvvPHGvHnzwsLCXF1dDQwMevfuTWtfvHgRAN555526CXZpaWlsbGyLFi0A4OzZs5p2Wlpa+r///a9r164AYGxs/NNPP6m/P1lFRcXQoUN37NhBCPHy8gKA5ORkTR3Qur6Yc0VFhYeHh66u7po1a7TugjU8ePBgWFiYROweP37cwcEBAD777DNWU81EWVnZhAkTdHV1TUxM4M9P27ZtL1++rGZzQkh1dfUHH3zQs2dPb29vW1tbAGjbtq2ab56V9KIFq6qqqsGDBwMA/xrujRs3xsTESIzjIRJAAkgACTR0AigH/4pgaGjorFmzWDhjY2MBYPDgwSzn6NGjtra27PD06dP37t1jh3WQ8PHx0U4OUt8++ugjAOjfv79Grn7//fcAQEdaUlJy8ODByspKjSzUsLIyzlTf2NranjlzpoZdEEIOHTo0evToqqoq3tT58+dPnz49ZcoU7eTgvHnzQkJCqJbKyMjo168fAPTt25fvQpz+6quvNmzYQOtUV1dPnToVAKKjo8Wt5KXasVq8eHHz5s0lcpAQEh0dvWLFCnkvmIMEkAASQAINlwDKwb9iN2XKlNzcXBZIuRwkhLi4uLAKdZ+YPHlyTeTgZ599BgAjR47UyHNfX1+5INDIwouoXFlZGRAQEB0dXV5eXnP7N2/ebNGiRXZ2tkJT8fHxWsjB4uLi9957r7q6mtm8f//+a6+9BgD3799nmeLE2rVr+QpZWVkAMHXqVD5TZVo7Vmlpab6+vhMnTpRHv7S0tEOHDqdOnVLZNVZAAkgACSCBhkIA5eBfkcrMzORjplAOXrp0ia9Tx+mXIgeHDh0qFwR1PPAX3d3o0aO9vLyU9ZKQkKCFHMzMzJRfthwyZAgASGaasn7l+efPnweAXbt2yYtqN6ekpGT48OEFBQWenp4Ko79ixYpOnTrV8XXi2h0jWkMCSAAJIAGeAMpBnsb/pRXKQVacnp4+Z86cfv360ZynT59u377dxcXlyy+/PHHihLOzs5mZmb29/aFDh1iTgoKCkJCQadOmjRs3rn///pGRkaWlpaxUYaKoqCgkJMTHxycgICAoKGjMmDGSq4M5OTlTpkwZNWpUhw4dPDw8bt26pdAOzZRcHbx///66deuGDx8eHR2dlZXl5uZmbm7+9ttvp6Wl0frx8fHu7u4WFhYA4OLi4u7uvmDBgrKysj179nh4eMTFxSUlJVlZWdnY2Dx69IgQkpCQ4OnpOXv27CFDhvj6+koeT3zy5ElERIS/v//YsWN79eq1adMm5qqgSMKZNhGQVDko1ilL0McTExISWI4koZ0clBihh8OGDWvUqFFJSYnCUpWZH374If88g8r6hBABK0HzGTNm0CU1yuRgRkYGAAigCYxjERJAAkgACdRDAigHFQdFIAdPnTo1Y8YM+lw/bbxjx47evXsDwNChQ728vDZt2jR79my9Pz90JWZOTk7btm3ZiocLFy5YWFjY2toKlprm5+fb2dmxxcvp6emNGzfm5WB2dna/fv3y8/MJIbm5uebm5s2aNROsM5DIwbS0tPfffx8Ahg0b5uPjc/To0Y0bN+rr63fp0oW/xdm/f38AePz4MR3p1q1be/bsCQA+Pj4hISHjx4/X09PLyspauXIlAFy/fp0QUlRUZGxsPGHCBEb20aNH1tbWBw4coDne3t4AsHnzZkKIoEjOmRAiJqnmoJhjhJB58+YBgLI7xVTmanF1kO+CpisrK1u0aOHn5ycvUplTWlo6c+bMVq1aJSUlqazMKohZsWqSxKFDh5joVCYHq6urLS0tnZ2dJW3xEAkgASSABBooAZSDigMnkIOEkKqqKiMjo7Zt27LGGzduBIDg4GCW89VXXwFAr1696EOHNjY2vMxavXo1AEybNo3VlySmT59ubW3NN/Hw8GBysLq6esCAAdu3b2etgoKCxKpFIgcJIUeOHAEADw8P1svIkSMB4ObNm8ysRA4SQjZs2AAAI0aMoHWoonVzc9PX12fboDg6OlpYWDAjEydO9Pf3Z4cpKSl6enp0ra6gSCFnFxcXMUl1BsU8IYQMGDAAAAS6vLauDu7du9fU1PT27dt87+qkDx065ODgoKenBwA6Ojrr1q1Tp5V2s+7BgwfDhg1j162VyUFCSI8ePYyNjWvl2U01h4PVkAASQAJI4MURQDmomK1YDhJCzMzMeDlIRcPSpUuZudLSUnqn9fLlywAwceJEVkQIefz4sYGBgYmJCZNifOmjR48MDAx4cUkI4Z8dzM7OBgAnJyf3vz/059nV1ZW3w6flcvD48eMAEBYWxqoFBAQAQEpKCsuRy8GdO3cCQFRUFKtDCLl7925qairNefjwoZ2dna6uLj28ffs2AEh2OqSXGwVFzDjPmdYXk1RnUMw4IeSNN97Q19fncyTpWpGD5eXl3bp12717t8S4+od//PHHsGHDAMDU1JTJbkFzdVjJm48bN47f2FIgB+keNFqoW3mnmIMEkAASQAIvnUB9lIN//PFH4PMf/npV3SCruRwkhAwcOBAA1q5dCwDe3t4Szzt06AAA165dk+QTQpKTkwFg4cKFfBEvB/fu3QsAGi1tUUcO8l3QrpXJQYlvtHJqampERMTSpUvpDWWaefDgQQBQeJdTUMQGzsvBo0ePqiQpl4PyQTHjVNabmZnxOZJ0rcjBf//73zXfnKWqqsrFxUUZTInb6rCSNFm7dm10dHQp9xk/fjwA5Ofnl5aWSnbhcXV1BQBeO0qs4SESQAJIAAk0IAL1UQ7euHHD/vlPVlZWHTOtFTk4btw4ANi+fTsADBo0SDIER0dHAOB3t2EVtmzZAgDsES6az8uar7/+GgAOHz7MmqhMvFA5WFhY6Ovr6+fnR7fZo5eOqEvUVYXLDgRFbDi8HNy/f79KkprKwTq4OhgfH79gwQI2opok6J8Be/fuVWlEHVYSI/TqI90xW/7v8ePH+frOzs7saVE+H9NIAAkgASTQEAnURzlYHzjWihwcMGBAixYtcnJyAKB58+aSjTlsbW2VXZeimkayzSEvBw8cOAAAQUFBElbp6emFhYWSTHr4QuWgk5NTu3bt2AB5OUgf5pPc4SWEXLt2TVDEhsDLQXVIaioH6UtH+BdvsK5pooZXB/fu3Tt37lyJTQZKkq/y8MSJE5KHO5U1UYeVpO3Ro0cTnv/Qa8Nr165NSEi4e/cuX79Xr166urpPnz7lMzGNBJAAEkACDZQAykHFgVu4cCEADBw4UHExIU2bNm3Tpg0rlT87WFRUZGpqOn/+/Orq6j59+kgu5hUXF5uYmISHhzMLfCIvL8/IyEhPT4+/S+7n5wcAJ06cIITcuXPH0NBQX1+fv2Zz7949wR7FkZGRADB8+HDWkVw5TZo0ia1WodXoJUz+YTX67CB/szg3NxcAevbsySzT8dLHIvPz801MTHR0dI4cOcIqXLlyJSoqSlDEavKc1SGpzqCYcUJIRESEslv2tJpgG+pr165JXmrHWyaEHDt2TB7ihIQE9oSASgsSg1988QXb3ogWKbOgDiuJcfkhnXIKtfIbb7zB3tkob4g5SAAJIAEk0LAIoBxUHC+6UNfa2lphcXl5ua6urqmpKVsIQuXgmDFj2CNWH3/8cceOHemS1bS0NGNjYwcHh2fPnlGDcXFxVlZWggWt9J1ydnZ29AHBlJSU119/HQACAgIyMjIIIXSzm6ZNm4aGhiYmJi5ZsqRHjx6CV+J++OGHANC1a1c2on379gHAlClTWI67uzsA/PzzzyynS5cuknuCmzZtktzIzsvL09HRAYBt27ZlZGTExMS0bt0aAM6dO3f16lVCSFRUFADo6+tPnjx5w4YNkZGRDg4OVGIKigghcs4qSaozKDY6Qsi5c+cAYMuWLXwmn162bBkARERE8JmEkLCwMLq1kCSfHZ4+fdrc3HzChAme3MfR0ZEtylZpITQ0NCYmhqmx3NxcOzu7nJwc1oXYgkpWzI6yhDI5eOfOHQBYtGiRsoaYjwSQABJAAg2LAMpBabxOnz4dFhZGN/kDgPHjx0uee0tOTqYrcAFg+vTp9Gl6Kgfffffdvn37zpgxw83N7b333qObAtIOMjMzHRwc+vTpExMTExwc7O3tzV9ykzpBSEVFxZw5c4yMjOhi0hkzZvj7+3fs2PHTTz+l15bKy8vDwsIMDQ3pY16DBw+mMlFu6vjx4+Hh4WxEXl5eCQkJp0+fprcCLS0tlyxZQghZtWoVrePk5JSamnru3Dl65YxeU9y8eXNpaWl8fHznzp0BwNLScvny5ezBR7p7HwB07949LS0tOjoaAMzNzem1zOrq6tjY2CZNmlBXXV1d79y5Q/0UFCnkTAgRkFQ5KDkcQsioUaMUbgd45cqVL7/8sm3btnSPya+++ort0U0ImT17Nh3O77//Ljd7+fJlMzMz+RN4APDtt9/S+mILVVVVtra2ANCyZcvQ0NDZs2fHxMQ8fPiQ70tsQcyKt6MsrUwObt68+bXXXqPbjytri/lIAAkgASTQgAigHKydYLGbxc+ePcvIyFD2TFVRUVFmZqb6u7WVl5dnZmZSaw8ePJD7WlZWlpGRwetOeZ26ybl9+zb/WpScnBzJ6zcqKysvXbqkUEMIipQ5rylJZXYIIdnZ2S1bttRiz5S8vLxBgwYpjIugO75IbKGiouLXX389ISiL5gAAIABJREFUfvz4zZs32XVovjkhRGyBVq5FVoSQ6urqvn37btiwQeIJHiIBJIAEkEDDJYBysHZix+Rg7ZhDK3VLYPfu3ZMmTdK0z3Pnzs2cOVPTVnz9+mCB90ed9Pr16319fdWpiXWQABJAAkigoRBAOVg7kaILDuLi4mrHHFqpcwLr169fvHix+t1mZGQsX75c/frymvXBgtwrcc6RI0emTp2q9cposXEsRQJIAAkggZdFAOVg7ZBftGiR+KVztdMNWnmRBJKSkvjlzy+yqwZp+9q1a998802DdB2dRgJIAAkgASEBlINCPOoVrl+/3tXVdeTIkS4uLjExMVeuXFGvHdZCAkgACSABJIAEkMDLJ4By8OXHAD1AAkgACSABJIAEkMBLJIBy8CXCx66RABJAAkgACSABJPDyCaAcfPkxQA+QABJAAkgACSABJPASCaAcfInwsWskgASQABJAAkgACbx8AigHX34M0AMkgASQABJAAkgACbxEAigH/4J/6NChtX9/Dh8+LAjJ8ePH/664du/evYKagqLi4uKRI0cuW7ZMUKfWiwoKCnbt2uXp6UlfrKep/YyMjBUrVowePVrThrS+1kMuLS1dtGhRcHDwwIEDo6KiKioqtHNAi1YqfS4vLw8PD1+/fr0WxrEJEkACSAAJIIF6QgDl4F+BKCkpOXv2bLNmzQDAxMRE4bvUCCElJSWWlpb0XbTffPPNkydPtAvkxYsXAeCdd97RrrkWrUpLS2NjY1u0aAEAZ8+e1dTCiRMnPvroIwBo0qSJpm1pfe2GXFFRMXTo0B07dhBCvLy8ACA5OVk7B7RoJfa5oqLCw8NDV1d3zZo1WhjHJkgACSABJIAE6gkBlIPPBWLcuHFU6kVHRz9X8PfB+vXrmzRpAgDNmjX7O0+t/589e3b58mW+6unTp+/du8fn1EHax8dHOzlIfbO0tNRaDhJCtBjy999/DwAUVElJycGDB+v4lRjKfKZa0NbW9syZM3UQOOwCCSABJIAEkMCLI4By8Dm2fn5+ffr0AYCWLVuWlpY+V/bnQbdu3UJDQwGgffv28lJBTmBg4M6dOwUV6qZo8uTJNZGD7du3r4kc1GKMvr6+AFBcXKxF2xfXpLKyMiAgIDo6ury8/MX1gpaRABJAAkgACdQNAZSDz3H28/PbuHGjqakpAMgfCDt27Ji9vf3OnTs1lYMrV64EAJSDz7FW72Do0KH1UA6q5zvWQgJIAAkgASTQMAigHHwuTn5+ft99992sWbMAoHPnztXV1Xyxi4tLYmKiQjlYUFAQEhIybdq0cePG9e/fPzIykl1cTEhIoPeXe/fu7e7uHh8fTwhJT0+fM2dOv379qP0zZ84MHz7c3t7e2dn5+PHjNPPYsWNDhw4dPXo0e+udoBfeTz5dVFQUEhLi4+MTEBAQFBQ0ZswYydXBnJycKVOmjBo1qkOHDh4eHrdu3eKbS9Lyq4MJCQmenp6zZ88eMmSIr69vUVGRpAk7lAz5/v3769atGz58eHR0dFZWlpubm7m5+dtvv52WlkabxMfHu7u7W1hYAICLi4u7u/uCBQvKysr27Nnj4eERFxeXlJRkZWVlY2NDH/QUe/LkyZOIiAh/f/+xY8f26tVr06ZNzDFBkcRn2kQQBZWDYp1iAgkgASSABJBA/SGAcvC5WFA5mJuba2BgAAD8wuErV65YWVlVVlbK5WBOTk7btm3ZeoILFy5YWFjY2tqyhSYLFy7krw6eOnVqxowZANC2bVvW/bZt2wDA0dGR5RBC3nvvvR9++IHmqOyFb0jT+fn5dnZ2bP1yenp648aNeTmYnZ3dr1+//Px8Qkhubq65uXmzZs3y8vLkpmiORA7Sq57Xr18nhBQVFRkbG0+YMEFhW/mQ09LS3n//fQAYNmyYj4/P0aNHN27cqK+v36VLF16F9+/fHwAeP35MzW7durVnz54A4OPjExISMn78eD09vaysLLEnjx49sra2PnDgADXi7e0NAJs3byaECIrkPhNCxFFQc1AKEWEmEkACSAAJIIGXRQDl4HPkqRwkhNAlF+zqHSFk2rRpX3zxBSFELgddXFxsbGx4EbN69WoAmDZtGrUukYOEkKqqKiMjI14OVlVVWVtb6+np3b59m7Z6+vRpr169mFmVvTw3kj8Ppk+fbm1tzSwQQjw8PJgcrK6uHjBgwPbt21nDoKAgAPjss89YjiQhkYNubm76+voFBQW0mqOjo4WFhaQJO5QP+ciRIwDg4eHBPBw5ciQA3Lx5k7WSyEFCyIYNGwBgxIgRtA7V3GJPJk6c6O/vz2ympKTo6enRYQqKFIZJZRTUGRTzBBNIAAkgASSABOoDAZSDz0WBycH//e9/dInxqVOnCCGPHz9u06YNVR4SOXj79m0AmDhxIm/o8ePHBgYGJiYmVOjI5SAhxMzMjJeDhJCvvvoKAD7//HNqasuWLXFxcTStTi+8A/S6l4GBQXBwMJ/PLyXJzs4GACcnJ/e/Pz169DA2NnZ1deWb8GmJHLx7925qaiqt8PDhQzs7O11dXb6+JC0Z8vHjxwEgLCyMVQsICACAlJQUliOXg5R/VFQUq0MIEXhC0Uke3KSXGwVFzDjvszpRUGdQzDgmkAASQAJIAAnUBwL1UQ7+8ccfgc9/+MtFL5Qak4OEkOHDhwOAu7s7IWTp0qWzZ8+mXUvk4NGjRwHA29tb4liHDh0A4Nq1a4QQNeXgkydPXnvttXbt2lVVVRFCnJ2dHzx4QM2q04vEgeTkZABYuHAhn8/Lwb179wLApUuX+AritEQO0sqpqakRERFLly6lt3EFFnhpRQiRKyfePWpHmRyUjEvgycGDBwEgKSlJ7pigiFXmfVYnCuoMihnHBBJAAkgACSCB+kCgPsrBGzdu2D//ycrKqhtYvBz88ccfAUBHRyczM7NTp05Mkkrk4P79+wFg0KBBEg8dHR0BIDc3V305SAgJDg4GgEOHDmVnZ3t6ejKb6vTCKtPEli1bAGDWrFl8Pq+3vv76awAQv4KFb0sIkcjBwsJCX19fPz8/uhHM4MGDAUQzipdWtSsHBZ7QYSYkJEjGQggRFLHKvM/qRAHlIEOHCSSABJAAEmgoBEQ/3g1lDLXop6+vb2JiIjPYo0cPALCxsfHy8mKZEjmYk5MDAM2bN5dsj2xra2tmZkZbqXl1kBCSmZlJL0nOmzePv6ClTi/MQ5qgusTFxYXP5+XggQMHACAoKIivQFc9FxYWSjLpoUQOOjk5tWvXjg38JcpBgSf0YT7J3XxCyLVr1wRFbPi8HFQnCigHGTpMIAEkgASQQEMhgHLwuUh5eHjQjWBoLl3tCwC//vorq0cz27VrR3Oqq6vpztX8Zbbi4mITE5Pw8HBaJyYmBgC2bNnCjBBCmjZt2qZNGz6HpgcPHqyvr+/o6MgWWBBC1OlFYiovL8/IyEhPT49d1ySE+Pn5AcCJEycIIXfu3DE0NNTX12db2xBC7t27N3XqVIkpdsjLwdzcXADo2bMnK6UceLdZEU1IhixXTpMmTWIrXWgTepGVrVZhS3n4m8ViT/Lz801MTHR0dI4cOcL8uXLlSlRUlKCI1eR9VicK6gyKGccEEkACSAAJIIH6QADl4HNR6NKlC9NwhJCKiop//etfAwYM4CstXrwYABo1asR2FkxLSzM2NnZwcHj27BmtGRcXZ2VlxTaa2bp1KwB4eXmVlpbu2bOHEFJeXq6rq2tqaioXT4mJiQCwZMkSvlNCiMpeJPUJIfQtw3Z2dvQBwZSUlNdffx0AAgICMjIyCCF0v5umTZuGhoYmJiYuWbKkR48ekpfp8WabNWumr69PH23My8vT0dEBgG3btmVkZMTExLRu3RoAzp07d/XqVb4VTcuHvG/fPgCYMmUKq+zu7g4AP//8M8vp0qULANC9bGjmpk2bJDfBVXoSFRUFAPr6+pMnT96wYUNkZKSDgwOVmIIihWFSGQV1BsVGhwkkgASQABJAAvWBAMrBv6Lw7bffvvfeewBgaGg4ffp0tsBi2bJlVMARQn7//fe5c+daWlrSRcfOzs5sl5bMzEwHB4c+ffrExMQEBwd7e3vzF7QKCwutrKwAoE2bNqdOnUpOTqZLaAFg+vTp6enp/FSoqKiwsrJSuPmfuBfeCE1XVFTMmTPHyMgIAExNTWfMmOHv79+xY8dPP/2UrnEpLy8PCwszNDSkIxo8eDCViXJT58+fDwwMpNUCAwPp4t958+bRnO7du6elpUVHRwOAubk5vfrIG5EP+fTp03SZiKWlJdW+q1atotsiOjk5paamnjt3LiIigtofPnz45s2bS0tL4+PjO3fuDACWlpbLly+nj2YSQsSeVFdXx8bG0s3AAcDV1fXOnTvUPUGR3GfaRBAFlYPimWAaCSABJIAEkEA9IYBysDYDUVRUlJmZqfA9tiUlJVlZWfS6msou//jjD0EdQS8KW5WXl2dmZj59+pQQwpYq8zXLysoyMjLoZtR8vjrp27dv8y8yycnJKSkpUadhrddR6UllZeWlS5foK0wkvQuKJDXZoaZRYA0xgQSQABJAAkigvhFAOVjfIoL+IAEkgASQABJAAkigTgmgHKxT3NgZEkACSAAJIAEkgATqGwGUg/UtIugPEkACSAAJIAEkgATqlADKwTrFjZ0hASSABJAAEkACSKC+EUA5WN8igv4gASSABJAAEkACSKBOCaAcrFPc2BkSQAJIAAkgASSABOobAZSD9S0i6A8SQAJIAAkgASSABOqUAMrBOsWNnSEBJIAEkAASQAJIoL4RQDlY3yKC/iABJIAEkAASQAJIoE4JoBz8C/exY8fWPv8pLCxkobh58yZfyL+AjtXhExkZGStWrBg9ejSf+SLSBQUFu3bt8vT0lLzpTs2+6sxPNf0hhNRDl9R3HmsiASSABJAAEmiIBFAO/hW14uLiBQsW0Dfkuru7S17mVlVVdfny5ddff71169a//PJLdXW1INgnTpz46KOPAKBJkyaCajUvKi0tjY2NbdGiBQCcPXtWU4N15qf6jtVDl9R3HmsiASSABJAAEmigBFAOPhe4AQMGAMCoUaOey/37wM7ObsOGDX8fqfjf0tLyRctB6oGPj492cpA2rzM/VfDiiuUuPXv27PLly1wVTCIBJIAEkAASQAK1RgDl4HMok5KSAEBPT+/GjRvPFRBy/fp1c3PzkpISSb6yw/bt29eNHJw8eXJN5GCd+akMlDxf7lJgYODOnTvlNTEHCSABJIAEkAASqDkBlINShj179gSAWbNmSQo+/vjjGTNmSDIFh3JNI6hck6JXXg6uXLkSAFAO1mSSYFskgASQABJAAgICKAelcLZt2wYApqamT548YWUVFRWvv/76hQsXWA5NJCQkeHp6zp49e8iQIb6+vkVFRayCXA4WFBSEhIRMmzZt3Lhx/fv3j4yMLC0tpfXLysr27Nnj4eERFxeXlJRkZWVlY2Pz6NEjZo1PFBUVhYSE+Pj4BAQEBAUFjRkzRnJ1MCcnZ8qUKaNGjerQoYOHh8etW7f45pK03E/BoPi2Dx8+jI+Pd3V1nT59el5eXmBgYNu2bbt27bpt2zZCyJkzZ8aNG9eiRYvOnTsnJSXRhrt27XJ2dra3tz948CAhJDs7e/78+fZ/fpShS0hIaNKkCQD07t3b3d09Pj6emlLTSd5hTCMBJIAEkAASQAIKCaAclGIpLy9v06YNAKxYsYKV7d69u2/fvuyQJuhVq+vXrxNCioqKjI2NJ0yYwOpIZFZOTk7btm3XrFlDK1y4cMHCwsLW1paKzq1bt9Krkj4+PiEhIePHj9fT08vKymLWWCI/P9/Ozm7ZsmU0Jz09vXHjxrwczM7O7tevX35+PiEkNzfX3Ny8WbNmeXl5zIIkIfFTPCi+bXp6+syZM6lQCwgIOHTo0Llz52xtbU1MTBYtWhQWFnbmzJmkpKRWrVq1bNmyvLyctp0xYwYAJCQkMFPdu3cHgMePH7MciUsLFy6UXB1U30lmExNIAAkgASSABJCAMgIoBxWQWbx4MQC0b9++srKSFg8fPnzTpk2Sqm5ubvr6+mzTGUdHRwsLC1ZHomlcXFxsbGz4JcmrV68GgGnTptEmGzZsAIARI0bQQ/7aJLNJCJk+fbq1tTVvx8PDg8nB6urqAQMGbN++nTUJCgoCgM8++4zlSBISP8WDkrTNysoCAEdHR5a/Zs0aAPjggw9YTmhoKACcOXOG5ixdulQiBwcPHqypHNTISeYJJpAAEkACSAAJIAGFBFAOKsBSUFBAb1AmJiaSPxeRNG3atLi4WFL17t27qampNPPhw4d2dna6urqsDi+zbt++DQATJ05kpYSQx48fGxgYmJiYUG23c+dOAIiKiuLrSNKPHj0yMDAIDg7m8/lnB7OzswHAycnJ/e9Pjx49jI2NXV1d+SZ8mveTECIeFN+QEHLjxg0A4LdX3LdvHwBERESwmtHR0QCwe/dumlMrclAjJ5knmEACSAAJIAEkgAQUEqiPcvCPP/4IfP5z8+ZNhd6/uMyQkBAAsLe3J4TMnTt36tSpyvpKTU2NiIhYunQpvdvLqvEy6+jRowDg7e3NSmmiQ4cOAHDt2jVCCJWDCxculNThD5OTkwFAUoeXg3v37gWAS5cu8a3Ead5PVlPZoFgFmpDLwQMHDkjkYGxsLADQBwoJIbUiB2nvajop8RkPkQASQAJIAAkgAQmB+igHb9y4QZcXsH8VPkUnGUntHl6/fl1XVxcAfvnll5YtW54/f15uv7Cw0NfX18/Pj144pDc9WTVeZu3fvx8ABg0axEppwtHREQByc3PVlINbtmyRr3rm5eDXX38NAIcPH5Z0JDjk/SSEiAclsfOy5KBGTkp8xkMkgASQABJAAkhAQqA+ykGJiy/rcOzYsQDQpk2bnj17KvTBycmpXbt27PlCgRzMyckBgObNm7PK1KCtra2ZmRlNq3N18Pjx4wDg4uLC+8PLQXpxLigoiK9ACElPT+ffuceXSuSgeFB8Q4U3i+vm6qBGTkp8xkMkgASQABJAAkhAQgDloATI/x2ePn2avrOOLQf+v7I/F+0CAK8U+/TpAwBskQcvs6qrq2kpf92uuLjYxMQkPDycmlVHDubl5RkZGenp6fF3z/38/ADgxIkThJA7d+4YGhrq6+sfP36ceXvv3j3BzW7ez9zcXPGgmE2aUHZ1cM6cOaym5GbxqlWrACA2NpZVsLOzAwB+Vx3eJUJITEwMAGzZsoU20dRJ1hEmkAASQAJIAAkgAYUEUA4qxPJXpr29fePGjRVeV8vLy9PR0aFPxWVkZMTExLRu3RoAzp07d/XqVUJIs2bN9PX1q6qqqK20tDRjY2MHB4dnz57RnLi4OCsrK7aCeNOmTfIbwXLn6NuQ7ezs6AOCKSkpr7/+OgAEBARkZGQQQuhOLk2bNg0NDU1MTFyyZEmPHj0Eb3jj/VQ5KIk/GRkZADBkyBCWT0Utrz4jIyMBgEnqkydPAoCVldXJkycvXbo0c+bMN998EwC2b9/OFuvwLhFCtm7dCgBeXl6lpaV79uzR1EnmGyaQABJAAkgACSABhQRQDirE8ldmYmJiQECAshrz5s2jlw+7d++elpZGl9Cam5t/8cUXgYGBtCgwMDAlJYVayMzMdHBw6NOnT0xMTHBwsLe3N9ukJj4+vnPnzgBgaWm5fPly+jShwn4rKirmzJljZGRE98qeMWOGv79/x44dP/30U7okpby8PCwszNDQkDowePBgKhPl1s6fPy/3U9mg6NVH3sjJkyfd3NwAwNDQcNWqVYWFhQf+P3vnHZfFsT38Q1eJgGAP0YAiQTFqFBURC1gwGEBiJYqCUbFgxa5YsKJGY/cagortxhjDVTFGLkYsaEQiihCNigUrWOhIm/fzyfzuvJPdfWb3KYDi+EcyO3vOmXO+c3b3sDu7z7FjTk5OOIqtW7cWFRXt2bMHvy7TqlUr/Jo2/lYO9s3Ozu7ixYtDhw61s7ObO3fuvXv3JF3Kzs62tbXFD+7Pnz+PEFLuJO0wb3MCnAAnwAlwApyAJAFeDkpi+b/O0tLSZ8+eMSQyMjLo3/xIT0+X/VHj3NzcGzdukM8yM4wzdhUXF9+4cSM/Px8h9Pz5c7HkmzdvUlJS8MeoxXvZPRoExTYo3vvkyZNbt27hB+uMT2QTxYKCgrS0NHKrFSFUCU6S0XmDE+AEOAFOgBOo3gR4OVi955dHxwlwApwAJ8AJcAKcgAwBXg7KAOK7OQFOgBPgBDgBToATqN4EeDlYveeXR8cJcAKcACfACXACnIAMAV4OygDiuzkBToAT4AQ4AU6AE6jeBHg5WL3nl0fHCXACnAAnwAlwApyADAFeDsoA4rs5AU6AE+AEOAFOgBOo3gR4OVi955dHxwlwApwAJ8AJcAKcgAwBXg7KAOK7OQFOgBPgBDgBToATqN4EeDn4bs9v4d//NI5BXXV15QWOkV9hEfQr3CwtLcVf3lYoT4sVFhaSn5Om+yu6rY3PGvhGf6lbA3WuQghwkgQFb3ACnMD7QICXg9Kz/Oeffy5evNjf39/T0zMgIGDr1q2PHz/OzMw8efKktEKl9968eXPq1KkWFhZHjx7VYHB11dWVF7gUGxvr6+traGhIfrJZIKBk093d3dzc/NGjR0qEiczhw4f9/f1btGhRu3btmTNnlpaWkl2V0GD47O/v7+LiEhsbqys3IiIiIiMjibU7d+7s37+fbCYkJGzfvn0b9S8iIoLsFTSioqIGDBgQExMj6Bdv0qP897//JeYvXrwoFiY99+/fJ5IHDhwg/crHJSq4Qbsh2KXwWBYM/dtvv61cufLNmzcCa3yTE+AEOIFqSYCXg8Jpzc3NHTx4sJWV1bp16/7666/8/PyMjIyIiAgbG5uGDRt+8803QoWq2C4rK4uKiurcuTMAaFAOqquurrwAyYMHD3bv3m1qagoA2pSD/fv3r1ev3tOnTwX2GZtRUVHdu3dHCJWWlvbt2xcA9uzZw5DX+S5VPj958kRPT2/cuHE6GbGsrGz06NHkV6ERQsnJyWPGjBH8ZOKTJ08+/fRTAGjatOnVq1cZlXGDBg0AoEaNGk+ePGF4KBilvLz86tWr9evXB4AWLVowbrAFBAQAgJ6eXmxsLC2mcFyBSwI3yF61jmXx0JcuXfL09Hz58iUxyBucACfACVRXArwc/MfMPn36tGXLltbW1vQvEWOJrKysZs2azZ079x8KVboRFhamWTmIvVZXXV15ARsXFxcty0GEEF06COyLN8vLyxs1ajRr1iy86+XLlwsWLHj8+LFYskJ7JH3esWNHnz59SkpKdDL05MmTSZjYoJubW25urth4SEgIAAQFBYl30T2HDh2aNWtWw4YNz58/T/cL2pKjfPXVV/D3v8OHDwvk8ebjx49NTEwAoEmTJgIBheMKtCTdUPdYlhx6//79vXr1YtTNAk/4JifACXAC7ygBXg7+Y+I+//xzADhz5sw/ev+3ER8f//XXX/9vq+r/Hx4erk05qK66uvICQG5ubtqXgwKb7M3U1FQAWLJkCVusSvaGhoa+fv1aJ0PHxMSYm5vT6zLLy8tNTEwWLFiwdu1awRCLFi0CgBkzZgj6JTfd3Nyys7MldyGEVI0ybtw4Dw8PAOjYsaOk7pw5c/r16wcA9vb2kgLscQUqqtzQ7FgWD92xY8dFixYJBuWbnAAnwAlUMwK8HPz/E7pv3z4A6Nat2//vErU2b94s6KugFxQkbymRofGga9as0awcVFddVp7tLXbb3d1d+3JQTFvcQyj99ttvABAWFkZ6cIOhIpDUyaYGwylXKSsr++STT7766iuBqy1btsS36P788096l/JycP369Tt27KB1xW3JUcaNG7dv375GjRoBwOnTpwVaubm5jRo1On78uKpyUMm4AptiNzQ7liWH3r59u6mp6bNnzwSD8k1OgBPgBKoTAV4O/v/ZdHV1BYB169b9/y7VrYKCgsjIyM6dO8+ZM+f8+fM2NjbW1tZ37twpKytbvXp1r169Bg8ebGtr6+Pjc//+fWxm+/btvXr1cnd39/T0JMvnf//994CAAA8PjyNHjiCEMjIyAgMDe/Xq1aBBg5YtW9KrwRBCBQUFs2fPdnV19fX1dXV1HTx4MF0OMobGDrDVxbHKyrO9FRgUlIOy3grUr127NmHCBDMzM7z6MD8/PyIiomPHjgsWLMjMzPTz86tVq1bTpk3xuz4PHjxwd3dv164dADRr1szd3b1Pnz6qpgw/g1Y1awihly9fBgcHe3h4dOnSpVWrVlFRUbRvjL0Cn7FWfn7+3LlzfXx8PDw87Ozs5s2bR16XZgdFD0ra0dHRACBwCSGUkpLi4+MzdepUwYNOheVgXFyckremJEcZN27coUOHVq1aBQAeHh7EVdxYv379uHHjLl++LFkOKhxXYFPshlrHMramauibN28CwPz58wWD8k1OgBPgBKoTAV4O/t9s5uTk4LspSq6CCKGoqCj8NMrf33/EiBH4NYW4uLh58+YZGxvj5eepqan6+vr0FRE/b/Xx8aFzaPXq1StWrEAIPXnyxMHBISkpCSGUn5/fs2dPAPjpp5+wcElJiZub27Bhw/CCs7S0tA8++IAuB9lDy6rTLiGEZOXZ3gqsIYQE5SDbW4H6nTt3Vq9ejRec4XJwz549+IFjQECAr6/vzp07N23aVKtWrXr16uFvyhQWFsbExADAokWLCgsLi4qKVE0ZQojhzIsXL+zt7bdv345dGjhwIACQap6xV+wzLujbt29PHj7+/vvvNWvWdHZ2VhKUgAne9PPzA4A//vhDcq+4U2E5KFZU3oPLwdevX9euXRsAkpOTiW5paamtre2tW7dUlYNEUpuGuscyeyz8MLpVq1ZsMb6XE+AEOIF3mgAvB/9v+q5fv47LwYSEBMGMvnjxYtWqVW3btm3297+xY8feuHEDIRQXFwcArVq1Ki4uxsUcQqhTp070AvlNX4VeAAAgAElEQVQmTZo0atSIGCwsLKxbt27Dhg3pdwh69uyJV2j5+/vPmzePCOMHau3atcM94eHhJiYmWVlZRGDs2LF0OcgeWladmFU4HNtbgTVxOcj2VqyOEMJvUpN3k0+ePAkAvXv3xvwRQvh9VfKJk1OnTgkeFktOGXvW/P3927dvT/zZtWsXAIwfPx73sPeKfZ49e7aZmRlxGCE0f/58AAgNDcUGZYMinuBG06ZNAUDyrRGBJN6stHIQITRjxgwAoB9k79+/39fXFyFUoeWgBseyJCvSaW9vDwDqfuGIqPMGJ8AJcAJvPwFeDv7fHF25cgWXg6q+27JlyxYAaNy4MVnXdeHCBQCYPXs2Pc0JCQlxcXG4548//vjwww8tLCxogTlz5gDAv//9b9yZmJiIvzZSUlJSq1at7t27j/zfP29vb3Nzc0tLy/Ly8rKysoYNG3bu3Jk2JVg7yBhaiTptWVae7S1tirQFdwcZ3hIVQQPfLiXl4JkzZwRP8ZYvXw4A5Gt54nJQcsoQQqqcycvLMzIymjx5Mu1JWloarubZe7EK7fObN28sLS27du1KW7t16xYANGjQAHfKBkXrFhUVAYCBgQHdyW5XZjmYkZFhZGRkaGiYnp6OvWrfvv2FCxcquhzU4FhmQ+vSpQsAYM/ZknwvJ8AJcALvKIG3sRx8+vRp0D//keV3FUc5KytLT08PADZt2iQ5Cr5X5+TkRPYmJCSIy0G8EO3AgQM+Pj5hYWHNmzc3NzcnKgih+/fvGxgYuLq64s7AwED8NO327dsAcPDgQVqYtPEND29vb9KDEBKUg4yhFaoT47LybG+JHbohKAcZ3tJadFtg4ezZs4JyUABEXA6qmjJVziQmJgLAwoULaTdIm70Xi9E+X7t2Dd/OJBZwAz/0xy8ryAZF6z579gwAateuTXey25VZDiKERo4cCQDBwcH4bjophSv07qAGxzIbWu/evQEAr+5lS/K9nAAnwAm8owTexnLw3r17nf/5Ly0trRL4tm/fHgD69u0rOdaJEycAoFOnTmSvZG1x9+5dJyenadOmFRUVIYTatGkjKAcRQgMGDMBrql69etWnTx9sMCUlRfBkkwyEEIqNjQUAFxcXulNQ/TCGVqJOW5aVZ3tLmyJtujBCCDG8JSqChsCCbOWkvBxU5Qy+mzhixAiBJ3iTvRfL0D7Hx8cDgKOjo8AafuCLvzsjGxStm5+fDwBGRkZ0J7tdyeVgSkqKnp5erVq1MjMz+/XrFx0djd2r0HIQIaTuscyG1qdPH3pVBluY7+UEOAFO4F0k8DaWg1XFEX+cwtDQ8Pbt22IflJSDJSUldnZ2bm5uRF2yHMQr2MaMGbNhw4Z9+/Zh4RcvXuCViIJXQX/++WeEUFJSEgDUr1+f/qQLXQ6yh5ZVJw7jhqw821uBNbxJF0ZsbyXVxasPZSsnheUgw5kHDx4AQN26dckTauzbDz/8gBBi7xVHnZGRAQCmpqaCHwtp3LgxWW8qG5QADn5dQ/lvqbHLwY0bNwrsa7CJXyUhiviNq8GDBzs4OJCFFhVdDqp7LBNvJRvOzs4A8Pvvv0vu5Z2cACfACVQDArwc/Mckenl54cd5dNWFJZSUg8nJyQAQEBBAjH766admZmZkkzQcHR1r1arl7OxMX8g7dOgAANOnTydXzYyMjLFjx+L3fOvWrQsApHwkD4vxq8fsoUtKStjqxDHcUCLP8FZgDW/S5SDbW0l1DcrBX3/9VfAZaskbumxnHBwcAGDZsmXEq6SkpKVLl+JN9l6xz/inWehJzM3N1dfXX7BgATaobjnYrVs3AJD8A4Y4TDcWLlwIANOmTaM7cTs6OnrXrl3ifrrnxYsX9KZke8yYMWRpLEIIf/0RAHbu3EnkL126BAB2dnakh9FQMqhYXa1jWaxO99ja2hoaGgqKeFqAtzkBToATeNcJ8HLwHzNYWFj4xRdfAMDAgQMFb2sePnxY8LAY3+QbNWoUMfHs2TN9fX1zc/MLFy6kp6dPnTrV0tJSX18/NjZW8GW4bdu2AYDgJ+9OnjyJ1y926tRp2bJlM2fObNKkybVr17D9TZs24TtV+EdT7t275+TkBABTpkxJS0uTHZqtTkIgDVl5trfEDml07NgRAPCb0bLeEi26QVtACB09ehRXz0Rm6dKl9PrLvXv3AsCECROIgHjKEEJsZ3766Sf8jtGIESN27tw5Y8aMFi1aPH/+HNtk70UICXy+fPlyjRo1HBwccnJysIV169bZ2NiQZJMNisSCG/jzfidOnBD0q9oMCgoCgD59+pA/OfBXjfbu3VunTh36vXWxhalTpwJA//79aV2xmI+Pj2ABbqdOnRo0aICXT2B5vBK3Tp064r+7BAYVDirQQgipdSyL1UlPUVGRgYGBu7s76eENToAT4ASqHwFeDkrM6cGDB52cnCwtLYOCgr799tulS5d6eXmZm5v7+fnhjwIihKKjo3E1ZmxsvHjxYlIfLFmyBJd0n332WWpqKv70Sb9+/cinhvF4eXl5VlZW9+7dEwx/8OBBS0tLXH9YWFj8+OOPtMCSJUuMjIxwUditW7eQkBADAwNvb+/Y2FiEkOzQbHV6INyWlWd7Swy+evVq6dKlBgYGuM4+d+6cEm+JOkLo+fPnS5YswRYGDRqUmJgYExODH+HVr19/48aNubm5W7Zsady4MQC0a9fu4MGDGzZs+OijjwDAzMwsPDz8119/VTVlss589913+G0PfENL8JE/VXvFPuOITp061aRJEzs7u0WLFo0YMaJPnz7kCybsoMgXKGkyDx48MDY2Jncr6V2CdkJCQmhoaM2aNXF2mZqaNvj7n4WFhb6+PgD06NFDoCLYxD8zCACqfsj49OnTs2bNMjIysra2Xrt27a1bt7CFH3/8cfny5bj99OnTDRs2tGrVCrvh5+dH3ysVjIgQkh1UrEL3KDmWaXlx+/z58wCwd+9e8S7ewwlwApxAtSHAy0GVU/n8+fPz589HR0cfP3786tWr9FNdlTp/73j69OnNmzexTHFx8Z07dyTlU1NTJfsLCwvj4+NPnz6dl5cnFnj+/PmpU6fwy8h37twRvHMtOzRbXd3h8D0Yhrdig3SPrLe0cEW32c7k5OTExcVdvHhRsLITe8XeK/a8rKwsMTExNjZW/PeAWFi2Z+LEiYIvEMmqaCaQmZmZkJAwduxY8iklzeyopaWTQTU+lvEnyu3t7SXnXa1AuDAnwAlwAm8zAV4Ovs2zw33jBOQJvHjxwtbWFt8hlpfWTqKsrKxv376CW93amZTXrpJBsVt5eXmNGjXC97PlHeUSnAAnwAm8swR4OfjOTh13nBP4H4Hk5OTPPvuMLED8X7eO///69esZM2aIf7ZHx8P801yVDEpcmDp16ubNm8kmb3ACnAAnUF0J8HKwus4sj+v9InD9+vXAwED8Y9kVFPm///3vCrUv6XaVDIo/S75mzZrIyEhJr3gnJ8AJcALVjAAvB6vZhPJw3l8CBQUFv/zyy/sbv04jv3jx4t27d3VqkhvjBDgBTuDtJcDLwbd3brhnnAAnwAlwApwAJ8AJVAIBXg5WAmQ+BCfACXACnAAnwAlwAm8vAV4Ovr1zwz3jBDgBToAT4AQ4AU6gEgjwcrASIPMhOAFOgBPgBDgBToATeHsJ8HLw7Z0b7hknwAlwApwAJ8AJcAKVQEBROZiUlBQSEjJ8+PB169adPXs2Nzd37dq1FeRcXl6eh4fHunXrVNl/9erVDz/8MHToUPzLHKrEGP2yQ0jqFhUVrVixYsKECd26dQsLCyspKZEUexc7U1JS1q9f379/f7bzYgKakVQ1ikI3aHW1kkED+/RYvM0JcAKcACfACVRXAvLl4JYtW4yNjZcsWXL27Nndu3d36tQJAD755JMKInL9+nUAcHJykrRfVFS0atWq+vXrA8DFixclZWQ72UNIqpeUlLi7ux84cAAhNGzYMAA4e/aspOQ71xkfHz9r1iwA+OCDDxjOSxLQgKSqIRS6QaurlQwa2KfH4m1OgBPgBDgBTqAaE5ApB9PT042NjYOCggiCkpKSUaNG1a5dm/TovHHhwoUnT54wzA4fPlybchAhJDuEYPSffvoJALBXBQUFx48fr2a/YWplZcUuB1URUJekAKxgU9YNgTxCSK1k0MC+eETewwlwApwAJ8AJVDMCMuXg3r17AWDp0qV02IWFhTY2NhX9i1j0iIL2119/rWU5KDAouzly5EgAyMvLk5V8RwU+/vhjdjlYOQRk3RDjVSsZNLAvHpH3cAKcACfACXAC1YyATDn4/fffA0CzZs0Exd+yZcv++uuvqmKhVgWgEyfd3d3f83KwcghoUK6plQwa2NdJ/nAjnAAnwAlwApzA20xAphy8e/eukZERAHz22Wfp6emqIklPTx87duznn39uY2Pj6+v74MEDScn8/Pz9+/d7enp+++238fHxvXv3trCw6Ny5c0xMDJFPTk6ePXt2ly5dSA9CKDc3d/LkycOHDw8MDBw/fvyAAQMEdwcVOoBtCoZ49uzZjh07+vTps3z58rS0NG9v7zp16nz22WdJSUkIocjISB8fH0tLSwDw9PT08fFZsmQJtvPq1avJkydPnDhx4MCBXbt2DQ0NLSoqwrvevHlz5MgRX1/f8PDwuLg4W1vbFi1avHz58sWLF5GRkV5eXpMmTcrMzAwKCrK2tnZwcNi7dy9CKCEhYeDAgfXr17e3t4+Li6MJ7Nq1a+jQoSEhIW5ubiNHjsTVuapRaEXSlrRA9jLqJAYBtUjisTR2g7iqTTIwwkQIyeYnAzgjGbDnOTk5c+bMCQgI+PLLL9u3bx8REUEiQggxErigoGDatGmjR48OCwvDOUAU2YMWFxc7Ozv369evvLycqPAGJ8AJcAKcACcgJiBTDiKEvvnmG/j7X82aNcPCwt68eSOwcvv27S5dumRlZSGEHj58WKdOnbp162ZmZgrEEEIHDhzo0KEDALi7uw8bNiwiIiIkJMTg738nT55ECJ0/fz44OBgArK2tiXpWVlbr1q3Ju8bJycm1atWiy0HlDkgOkZSU9NVXXwFAr169hg8ffvLkye+++87Q0PCTTz4h19GuXbsCwOvXr4lX6enp1tbW27Ztwz3Xrl2ztLR0dHTMyclBCEVFRbVr1w4Ahg8fPnny5EGDBhkYGKSlpSUnJ0+fPh0AOnToEBgYGBMTk5iY6OjoaGpqumLFiqlTpyYkJMTFxTVq1KhBgwbFxcXY+MaNGwEA/4Jqbm5ujRo1Bg8ezBiFOEkaqiwQAXadhBASExBPlixJ7d3QMhnYYcrmp6ppZScDQujly5d2dnbHjh3DwP38/ADg+++/x5vsBJ4+ffrQoUOx5PXr1zt37ozbsoM+fPhQT0/PxMTk1atXWIX/lxPgBDgBToATkCQgXw7iMq5evXq4KHRwcEhISCC2ysvLXV1d9+/fT3rGjx8PAIsXLyY9dOO7774DgAkTJpDOzZs3A0D79u1xT1lZmYmJCV0OTpo0yc7OjlRmCCFfX19SDqrrAEJIPMQvv/wCAL6+vmQUDw8PALh//z72SlwMeXp6tmjRgsgjhLZs2QIAEydOxCo7d+4EgL59++JNXCYihNLS0gDAxcUF9yOEtm3bBgAjRowgPVOmTAEAwtnb29vQ0JBc1F1cXCwtLdmjEFO4wbCABdh1kmQ5qAFJ7d3QMhlkw5TNT8lplU2GIUOGBAQEkEm5dOmSgYEBPkZkE9jBwWHUqFFEd/78+bgtOyhC6MyZM5cvXya6vMEJcAKcACfACUgSUFQO4tsbo0ePxhWhiYnJjz/+iM3dvn0bAHr27Onzv39t27atUaOGl5eX5Hi7du0CAPqzhUVFRfhRLCmYLCwsSDn48uVLIyMjunxECNHLxdR1AHtFD4EQio2NBYCpU6cSnwMDAwHg0qVLuEdQDmZkZADAkCFDiDxC6PXr10ZGRqamprhGPHjwIACEhYXRMgihe/fuAQD9kb/o6GgAmDNnDpFcvnw5ABw+fBj3PH78mFzUX7x40bp1a319fbxL1SjElKwFLCBbJwkIEPtqkWQEosQN7ZNBNkzZ/BQDl00GLHDw4EECDWcL3pRN4L59+wLAwoUL8VKE7OxshJDsoPRYvM0JcAKcACfACbAJKC0HsZW4uLi6desCQM2aNfGzy59//hkAUlNT2cOQveLLLUKoW7duAHDt2jUsRlcYZ8+eBYBly5YRC4JyUF0HxENIloN0xSm+N3by5EkA8PPzo71CCNnY2AAAfskG1w0CzyXLwWPHjgnKwVWrVgEAXlBIhrh8+fKcOXPWrl2LH0PjflWjEC26IWkBC8jWSRqXgwKSCCGN3dA+GWTDlM1PMXDZZDh+/DgACBaDknmRTeDr169bWVkBQPPmzY8fP44VZQcl9nmDE+AEOAFOgBOQJcAqB9+8eSOu8/744w8zMzMAwA+ttm7dCgAnTpyQHQkLSF5uBw4cCAB49SFCiC4Hd+/eDQAzZsyg7dMVhroOYDv0EBqUg0ePHgWA7t27014hhFxcXADg4cOHCCFx3YCFxXcHZcvB7OzskSNHjho1Cn/ppkePHgD/N3GqRhE4xrCAJWXrJJ2Ug1q6oX0yyIYpm59i4LLJgFN0165dgknBm0oSOD09vU+fPvje/Pjx48vLy2UHlRyLd3ICnAAnwAlwApIEWOVgWVlZx44d6eVx2MSQIUMAYPTo0QghXMqMHz9eYD05ORk/1RL0S15uXV1d69evTyTpWg0/xvX09CR7BXcH1XUA26GH0KAcTE9PB4B69eoJPkbt6OhoYWGBhxDXDbhfg3KwZ8+eTZo0IWNpUA4yLGCvZOsknZSDWrqhfTLIhimbn+JplU0GvDJVsLQAIYTvIssmMHmjPzo6Gi/hPXHihOygeFr5fzkBToAT4AQ4ASUEWOUgQqhly5Y7d+4UGBozZgwAbNmyBSH06NEjY2NjQ0PD2NhYIvbkyZNx48aRTbohvtzm5uaamZktWrSIiJmbm3/44Yd4MzMz08TExMDAgLzVgRAaNWoUAMTHx2vgADZLDyFZDuKFkuR38PBtP/IyR3l5eceOHQW3RfPy8kxNTadNm4aHENcNuF9VOTh79mwsgBCiHxY/fPgQANq1a0f24qHpFYriR9JEGL/uzbCAJWXrJAEBYl85SXYgStzQPhlkw5TNT/G0yiZDVlaWqampnp7eL7/8QrjdvHkTryuVPYLGjBlDtK5cuYLf05IdFKvk5+eLPwVArPEGJ8AJcAKcACeACciUg15eXiYmJv/5z38IrwcPHlhZWdnb25MPU+NPw5ibm0+ZMuXQoUNr1qxp27btn3/+SVToBr7cDhgwoKysDPfPmzevWbNm5D2S4uJifX19MzMzclcS/6Ju69at8ZPrS5cuNWzYEAACAwNTUlIQQmo5gBASD4Ff5hg7dixx1cfHBwBOnz6Nez755BPyqRfck5SUVKNGDWdn58LCQtwTHh5ua2tLAomIiBA/5kYIpaSkAICbmxsZC1cYdAEdGhoKAPgrNpmZmXp6engpYUpKysqVKxs3bgwAiYmJt27dUjUKMY4QYlvAknXr1jU0NCSTQqvjtpiAuiR14oaWySAbpmx+SgKXTYawsDAAMDQ0/Prrr3fu3BkaGurs7Ez+umAncPPmza9fv45nAX87Bv/pJTtodnZ23bp1P/74Y14RivOZ93ACnAAnwAnQBGTKwRkzZvTr169bt25eXl4zZ84cN26chYVF//797927R6wUFxdPnTrV2NgYr23q0aMHrtKIAN3Al9t+/fp16tQpODjY29v7iy++IKsGz549i1/pBYBJkyYlJycjhEpKSmbPnm1iYgIAZmZmwcHBAQEBzZo1W7hwIX7cppYD4iEuXLiAn4RaWVmtWbMGIbRp0yb8acOePXvu2bNnzpw5OLQ+ffp8//335FvTN27ccHZ27tix48qVKydMmODn50cu8JGRkfb29gBgZWX1zTff4NWECKFz5855e3sDgLGx8aZNm7Kzs48dO+bk5IQlt27dWlRUtGfPHvxKSqtWrQ4dOoQQmj9/PnagTZs2SUlJ+L3jOnXqBAYGSo5CA8dtVRbi4+OvXLkSFBSE7QcFBZGXqYmRxMRESQLqkrx8+bI2bmB/NE4G2TCxfXZ+qppWhBAjGRBC5eXlq1at+uCDDzBnLy+vR48eEcLsBG7VqlWbNm127NgRFRXVu3fv1atXE0X2oJmZmbVq1bKysqrGP65IUPAGJ8AJcAKcgDYEZMrBu3fv4uqnvLz85s2bZ86cef78ueR4b968SUlJIYWdpAxCCF9u165dW1hYmJKSkp+fr0pS0F9cXHzjxg0sL+mDQgcEZrXfzM3NvXHjBvlktPYGJS1kZGTQv/WSnp5eUFAgKamqU3sLqiyr1a8TNyouGTTOTwyBnQylpaWpqakvX76UJKYqgfHt58zMzGvXrkkWdoxBMzMzJZfwSjrAOzkBToAT4ATeWwIy5aDOuZDLrc4tc4OcgPYEeH5qz5Bb4AQ4AU6AE3jnCFR2ORgZGQkA4eHh7xwp7vD7QIDn5/swyzxGToAT4AQ4AQGByi4HV6xYQf+Sm8AbvskJVC0Bnp9Vy5+PzglwApwAJ1AlBCq1HPzXv/7l5eXl4eHh6em5cuXKmzdvVknMfFBOQJIAz09JLLyTE+AEOAFOoNoTqNRysNrT5AFyApwAJ8AJcAKcACfwzhHg5eA7N2XcYU6AE+AEOAFOgBPgBHRJgJeDuqTJbXECnAAnwAlwApwAJ/DOEeDl4Ds3ZdxhToAT4AQ4AU6AE+AEdEmAl4O6pMltcQKcACfACXACnAAn8M4R4OXgOzdl3GFOgBPgBDgBToAT4AR0SaDKysGjR49u/+e/tLQ0XUZWAbZSUlLWr1/fv3//CrD9NpqstHhfvXr1ww8/DB06FP9KtbosKs1P5Y69hS4pd75KJLXMgSrxWeGgFR2aZsmWl5fn4eGxbt06hVFoL1bRHLT3UBsLWkanpbo2nnNdTgATqLJyMDc39+DBg/D3vy5duty8ebOkpORtnpX4+PhZs2YBwAcffPA2+6kr3yot3qKiolWrVtWvXx8ALl68qK7/leancsfeQpeUO18lklrmQJX4rHDQig5N42S7fv06ADg5OSkMREuxiuagpXtaqmsZnZbqWjrP1TkBTKDKykE8vLW1NQBs3rz5XZkPKyurt6ocLCws/PPPP9Wip5ZKpcU7fPhwzcpBHHul+akctdgltcgrH6jaSGqZA28zh4oOTZxsYhri9Ltw4cKTJ0/EkhXXU9EcKs5zJZa1jE5LdSUechlOgEGgisvBTz75BAB27drFcPGt2vXxxx+/VeVgUFDQwYMH1UKklkqlxfv1119rUw5Wmp/KUYtdUou88oGqjaSWOfA2c6jo0MTJJqbxNqRfRXMQR12ZPVpGp6V6ZUbKx6qWBHRfDubn5wcHBzdo0KBx48YhISGFhYUMcLwcZMCR3bVx40YAUKscVFdFyWVG1k8lAlqeCivNTyWxYBmBS+qSVz5QtZHUMgfeZg4VHZog2cQo3pL0q2gO4sArs0fL6LRUr8xI+VjVkoDuy0F8xxsvCgSAcePGMcApLAdfvXo1efLkiRMnDhw4sGvXrqGhoUVFRcRsQUHBtGnTRo8eHRYWNnTo0JCQELKLbiQkJPTp06dz5869e/eOjY3Fu06dOuXu7t6/f3/yA8q7du3CRtzc3EaOHJmbm0sbEZ92Gb69efPmyJEjvr6+4eHhcXFxtra2LVq0ePnyJUIoPT197Nixn3/+uY2Nja+v74MHD8goCsPZtWvXBx98AAAdOnTw8fGJjIzEFhj+qFJhhCyOV3vPsZ+5ubmTJ08ePnx4YGDg+PHjBwwYILg7yBiIsCINsZ+MoIgWbrx48SIyMtLLy2vSpEmZmZlBQUHW1tYODg579+5FCCUkJAwcOLB+/fr29vZxcXEIoR9++KF3796dO3c+fvw4Quj27duLFi3q/Pc/OltolzQgL3ASbyoMKj8/f//+/Z6ent9++218fHzv3r0tLCw6d+4cExNDm2VYy8nJmTJlSlBQUL9+/dzc3JYtWxYdHf3LL7+8fv2a7Qkj5+mhcVu3OcAIByGUk5MzZ86cgICAL7/8sn379hEREcqnUlUqMoKVDY1xnIpBIYTY0dHJJlaXTL/k5OTZs2d36dIFyyvJGXV9RgjJclDFVhwFnkRVacmYC1XolFwR2O7JRqdqaBydrLokBN7JCVQQAR2Xg3l5efr6+qQWBAAjI6M3b96o8l5JOZienm5tbb1t2zZs5Nq1a5aWlo6Ojjk5Obhn+vTpQ4cOxe3r16937txZ1XB79+4FABcXF1rgiy+++M9//oN78N/Qd+/exSeyGjVqDB48mBYWnHbZvkVFRbVr1w4Ahg8fPnny5EGDBhkYGKSlpd2+fbtLly5ZWVkIoYcPH9apU6du3bqZmZl4IOXhLFu2THB3kO0PQkiswg5ZEK+uPM/KymrdujV5qzE5OblWrVp0OcgeiJ4R3Bb4yQ5KoJ6cnDx9+nRcWAcGBsbExCQmJjo6Opqamq5YsWLq1KkJCQlxcXGNGjVq0KBBcXExQig4OFiwyKFNmzYAQKolhJDAJXXJC5xECCkP6sCBAx06dAAAd3f3YcOGRUREhISEGPz97+TJk9gyw1pZWZmrq+uwYcOwpJ+fHz5qpk6deu/ePbYnqnJeHI5uc4ARDkLo5cuXdnZ2x44doyP6/vvvlUwlIxVVBSsbmuxxKsDFjk6cbAJ18YF//vx5nMPW1tZYWDZn1PUZISTLgcFWHAI7LVXNBRsd+4rAdk82OvbQsupiAryHE6hQAjouB589e0bXgridnZ2tKgYl5aCnp2eLFi3Ky8uJkS1btgDAxIkTcY+Dg8OoUaPI3vnz55O2oFFWVmZnZ2dgYJCRkYF35efnt2/fnhj39vY2NDR89eoV3uvi4mJpaUkbEVzjZX3buTorA/AAACAASURBVHMnAPTt2xcbycnJKS8vd3V13b9/PzE7fvx4AFi8eDHuUR6OuMKQ9Ueswg6ZjleHnk+aNMnOzo5gRwj5+vqSclB2IIKONGg/EULsoIgWaaSlpQn+Tti2bRsAjBgxgshMmTIFABISEhBCa9euFZSDPXr0ULccVNdJteS/++47AJgwYQLxf/PmzQDQvn173MOwduLECQAg95tTUlIAYOTIkcQUQxchJM55okg3dJsDbJeGDBkSEBBARr906ZKBgQE+4thTKZuKksGyQ0MIyR6nxFXcYEenQTmIECorKzMxMSHlIEKInTPq+owQYnOQZSuAIJuWknPBRse4Isi6x45O9iwkqy4In29yAhVNQMflIELos88+oyvCrl27MmKQLQczMjIAYMiQIbSR169fGxkZmZqa4nqib9++ALBw4UL8BJlRfSKE8EVx6dKl2ODu3bvDw8OJ8cePH1++fBlvvnjxonXr1vr6+mSv4LSrxDf8MZ2wsDBi5Pbt2wDQs2dPn//9a9u2bY0aNby8vLCM8nAEtZ0SfwQqCCF2yHSZpSvPX758aWRkRFcqCCF63YzsQAQmadB+ygZFtEjj3r17AEB/UTI6OhoA5syZQ2SWL18OAIcPH9ZVOcgmT8YlDbXkd+3aBQBr164l6kVFRZaWlgCAb6szrIWHhwPAv/71L6Jrbm7u7OxMNhm6CCFxzhNF0tB5DjBcwseFYIktuY/LLgdlU1EcrGxoSo5TAgo3GNFhAUH+C9TFdwexgIWFBV0OMnLmzz//lD0PCwaV5SDLVmBQNi3Fc6HkVKDqisB2TzY69tBK1AXh801OoKIJ6L4cTE1Ntbe3xxVh69atb9++zYhBthw8efIkAPj5+QmM2NjYAMBff/2FELp+/bqVlRUANG/eHC/nEgjTmzk5ObVr127SpElZWRlCqHfv3s+fP6cFEEKXL1+eM2fO2rVr8aNeei992lXiGz5DLVu2jBj5+eefASA1NZX0CBrKwxHUdkr8EaiQoVWFTMerK8/Pnj0LADQTQTkoOxBxmzRoP0mnqqCIAGmIy8Fjx44JysFVq1YBAF5QyK4hsFmBS+qSJ74JGgqDEl/aEULdunUDgGvXrhGbktZw0pLbaWVlZZaWloGBgUQLNyR1STkomF+BbkXkgKoj9/jx4wCA130K3JCt7GVTUXyAy4am5DgV+6kqOiwpSDaxumT6yZaDJGe2b98uex4WDCrLQZatwKBsWornglhQlat4PaLkFYHtnmx07KGVqxM7vMEJVDQB3ZeDCKHi4uKkpKQ//vhD9svSsuXg0aNHAaB79+4CEC4uLgDw8OFD3J+ent6nTx9cg44fP55+CilQRAhNmDABAGJiYm7fvk0WHWKx7OzskSNHjho1Ki8vDyGEnwDSFujTrhLfxGeorVu3AsCJEydos4K2wnAEp3gl/ghUEELskOl4deX57t27AWDGjBl01PTdQSUD0bqCu7ayQQl0EUJVUg6yyYudVEteshwcOHAgAOBFqwxrxcXFPXv2rFGjxoULFxBCv/76a/369em3nRi6CstBnecAwyWcTqq+ZsWu7GVTUXyAy4am5DgVzD4jOixJH6cCXbwpPvARQkrKQZwz+/fvV3IepoeW5SDLlraGLyvstBTPhcJTgeQVge2ebHTsoZWoC8Lnm5xARROokHJQudPscnDRokXp6ekAUK9evdLSUtqso6OjhYUF7klPT8eN6OjoevXqyRZbN27cAAAfH5/58+cL7hn07NmzSZMmZCx2OajEN/EZCt92Gj9+PB0OQig5ORk/5lYejuAUr8QfgQpCiB0yfZnRleexsbEA4OnpSROgy0HZgWhF3Kb9lA1KrF4l5SCbvNhJteQly0FXV9f69etjy2xrJSUl3bt39/b2njx5cmhoqOAOOltXnPPiWHSeAwyXfvnlF/GDToQQfrbALgdlU1EcrGxoSo5TATFGdFhSkP8CdY0fFiOEcM5o4LMsB1m24ijYaSmeC4WnAskrAts92ejYQytRF4fPeziBCiVQxeVgixYtBEvySbQnTpzw8/MrLy/v2LGjoMLLy8szNTWdNm0aFh4zZgzRunLlCv1aBukXNHr06GFoaOji4kLfR3z48CEAtGvXjgjjoWkZ+rSrxDfxGerRo0fGxsaGhobkYzcIoSdPnpAv8igPZ+XKlQCwe/du7LASfwQqsiHT8erK88zMTBMTEwMDg/v37xPUo0aNAoD4+HiEkOxARIs0aD9lgyJapKGqHJw9ezaRoR8Wb9q0CQBWrVpF9rZu3RoA8FeEcCftEkJIXfLEMm6oG5S4HMzNzTUzM1u0aBF+n52d6sHBwZcuXRL4oNATcc6L7eg2B9hwsrKyTE1N9fT0fvnlF+LJzZs38Ype9lTKpqI4WNnQlBynxE8lkyW+O06r47Yg/XCnubn5hx9+SIQZOaOuzwghWQ6ybIljpMFIS8nb0uzEIGbxgyDBFYHtnmx07KFl1bFv5KVG2lXe5gQqiEBVloPFxcVmZmYAQF7swEG+fv16y5YtNWvWxM93kpKSatSo4ezsTL5oHR4ebmtrSz4007x58+vXr2Pdhw8f6unp0ZWWJLhDhw4BwJo1a+i9mZmZenp6eH1YSkrKypUrGzduDACJiYm3bt3CknXr1jU0NMTrDhFCsr5FRESIH4ziTzyYm5tPmTLl0KFDa9asadu2LfmtOeXhREVFAcCwYcOKioqOHDmixB+BimzIgnh15Tn+9efWrVvjNZSXLl1q2LAhAAQGBqakpJDPf6hCRM+aeF5kgxKr45dn3dzcyC58mSc1OkIoNDQUAPAHj86dOwcAtra2586dS01NnT59esuWLQFg//79eJkBQkiATl3yxBPcUDcofGkfMGAAydV58+Y1a9YMHzVsa8ePH9fX1584ceLWrVsPHDjwn//859y5c+STimxdhJBkzgvCQQjpMAdkXQoLCwMAQ0PDr7/+eufOnaGhoc7OzvhaKzuV7JyXDFY2NNnzBo1LNjpxstHquC1IP/zsVV9f38zMjPy5y84ZtXzGg8pyYLMVRMFOS8nEU4IOjyJ5RWC7x45Odmi2OkLozJkzRkZGgwYNEnDgm5xABRGosnLwhx9+6NevH17tp6en16RJE3t7+xYtWtStWxfXZABAPgdz48YNZ2fnjh07rly5csKECX5+fvSfTa1atWrTps2OHTuioqJ69+69evVqWVglJSW2trbkU39Efv78+dilNm3aJCUl4ZdJ69SpEx8ff+XKlaCgILw3KCiI3Dth+BYZGYnfqrGysvrmm2/ISsfi4uKpU6caGxtjaz169MA1EHZDeTjZ2dm2trYA8OGHH54/fx6rM/zBy1kEKqpC3rBhgzheXXleUlIye/ZsExMTADAzMwsODg4ICGjWrNnChQvxIzz2QGS+EEKS86IqKHz3kVZHCJ07d87b2xsAjI2NN23alJ2dfezYMScnJwCwsrLaunVrUVHRnj178NtLrVq1OnToEP6IBp4+Ozu7ixcvDh061M7Obu7cuffu3ZN0STxZajmJEFJLHl/a+/Xr16lTp+DgYG9v7y+++AKvGsThM6zdv38f3+zEAeL/1q5d+8cff5TVVZXzAuYIIR3mgCyc8vLyVatW4c+2A4CXl9ejR4+IS5MmTVI1lbhsUnW0qgpWNjSEEPs4Jb7JApdMNoG6+MA/e/ZsYGAgjnrSpEnJycn4S9cAwMgZtXzW+RSz01LVXDDynKYkeUVgn4VkZ5k9tKx6TEwMAPTq1Yv2k7c5gYojUGXloAYh5ebm3rhxA38HmFbHdw0zMzOvXbtG7s3QApLtp0+fSvZnZGTQq+bT09MLCgokJelOVb7RMoL2mzdvUlJS6Cs0FlArnIKCgrS0NHIHiAzB8Eesom7IOvEcX2hv3LiRn5+PEBKsTsOBqBqIhMloqBsUw5SqXU+ePLl16xa+uSL+00KspT155UGRB3+FhYUpKSkYssAlVdYePHgQEBBw7969ixcvnjx58qefftqzZ09oaGiLFi2IBVW6REBho7i4WFc5IOtSaWlpamoq/UCfOCk7lRqkomxo+Fv3kuc04hhpyEZHJFU1xOknkFSSM2r5jO3LclDIVklaCiLCmwrRqboisN1jRyc7NFv9/v37sq9jSobMOzkBDQi8S+WgBuFxFU7g/SRALu3qho/vYgpescJGBJ+KVNcyl3/LCWicM5UQF0/LSoDMh3jPCfBy8D1PAB5+9SQQGRkJAPQn1hXGiRdRbdmyRSB/6tSpb7/9VtDJN6sTAY1zphIg8LSsBMh8iPecAC8H3/ME4OFXTwIrVqygf8hReZDPnz/Hq0tdXFymTJkyd+7cMWPG9O7de+PGjcqNcMl3kYDGOVMJwfK0rATIfIj3nAAvB9/zBODhV0MC//rXv7y8vDw8PDw9PVeuXHnz5k21gszOzt6yZcvw4cO9vLymT5/+/fffk9eK1bLDhd8hAlrmTCVEytOyEiDzId5nArwcfJ9nn8fOCXACnAAnwAlwApwA4uUgTwJOgBPgBDgBToAT4ATeawK8HHyvp58HzwlwApwAJ8AJcAKcQLUtB+nvVL9t01z497+3wau3mZLO+RQWFpIfYGAYLyoqUvKlSYGF0tJSyW/7CcQqeVOhV+9QGiiJSMvjSwN1DVRIJiiJiAiLGwqzWqyoZY+Wbms5OlevHgS0OXAQQlqqVw+GOoyiysrBhISE7du3b6P+RURE6CSw2NhYX19fQ0ND8qN2OjGrEyM3b96cOnWqhYXF0aNHNTYYGxubkJBA1BMSEsQ/tnHlypV58+YNHTp0wIABISEh+DdLDh48+OzZM6z4NlMioemqcfjwYX9//xYtWtSuXXvmzJmlpaUIoatXr7q4uAwcOJAUf7dv3545c6aVldWBAwfUHdrd3d3c3Jz+rQt1LWD5srKymTNn+vv7E1OhoaF+fn537tzRwKCsV+9cGrAj0vL40kBdAxXBPLIjEgjTm5JZTQtUaFtjtyvUK2y8rKxsz549o0aNGjJkyI4dOyrhS86pqan9+/e/e/duJURXPYbQ8sDRRl3JBRQh9Oeffy5evNjf39/T0zMgIGDr1q2PHz/OzMw8efIkQki3J+q3ZE6rrBxECD158uTTTz8FgKZNm169ehVfpLXk8uDBg927d5uamgLA21YOlpWVRUVFde7cGQA0Lge3bdv2/fffE0r79+//5ptvyCZCKCMjo2fPnh9//PH27dtv376dlZWVkJAQGBjo4OBgamqKf9z5baZEx6KTdlRUVPfu3RFCpaWlffv2BYA9e/bgnzWrWbMm+bFBhNDevXt79OgBABqUg/37969Xr56qHzZQHsj58+fxT4f16dMHIXT79m282aFDB+VGiCTbq3cxDRgRaXl8aaCugQqZGtJgRERkxA1VWS2WrKAezdyuIGdos6Wlpd7e3k2bNm3btq2hoSEADB48mBbQebu4uPizzz4DgD/++EPnxqulQS0PHG3UZS+g+Hd3Bg8ebGVltW7dur/++is/Pz8jIyMiIsLGxqZhw4b4gqvbE/VbMstVWQ4ihEJCQgAgKChItzhcXFzewnIQxxgWFqZxOfjy5ctu3boRVkVFRR07diSb+IdQGzRo8Omnn4p/8+3nn3/W09Oj7yO+zZTooLRpl5eXN2rUaNasWdjIy5cvFyxY8PjxY4RQmzZtyI/wkiHWr1+vWTmI/14kdjRuvHnzZubMmRMmTGjQoAFCqLy8fPHixVOnTjUyMlLypFs8rvgHDAUyb3MaZGdni793yI5Im+MLIaSBugYqgilgRyQQxlmhKqvFwhXXo67bFecJbXnTpk2RkZG4Jzk52cLCAgAuX75My+i2PXfuXEtLS14OqktVywNHA3XZCyhC6OnTpy1btrS2tqZ/qxaHlpWV1axZs7lz5yKEdH6iVpdeRchXcTm4aNEiAJgxY4ZuY3Nzc3try8Hw8HCNy8GzZ882bNgwJCQE1zFpaWl16tSZNWsWfs5eVFT06aef6uvrJyYmSvIcO3ZsdHQ02fU2UyJOatlITU0FgCVLlgjsPHr0SPIXO7Zu3apxOSgYQpvNhw8f9uvXj1jIyclxdnYmm7ptvM1psHDhwkWLFqkVrzbHF0JIA3UNVNSKSCysKqvFku9hz8WLF+moZ82aBQD0eY/eq3377Nmzbm5uwcHBvBxUF6aWB44G6uwLKPb/888/B4AzZ85IhhMfH//111+TXZV5oiaDVlxD9+Vgfn5+cHBwgwYNGjduHBISwn5iW0HloLu7u6pyUMu/aCXVFd62wWJr1qzRuBx8+vRpjRo1AOCjjz5CCOXk5JiZmQGAsbFxeXn55s2bAaBnz56q0uXWrVu7du0iexmUiIzGDYVMiH115fE9EqKuqvHbb78BQFhYmCoBQf+2bduUlIOS3kp2Cuwr2SwsLBwzZkxycjIWLi0tnTZtGr1alG1E4IZgU6xboWkgHk7Qw3Dv6NGj+vr64nJQlQru1/j40kBdVkXydCEgIJnJqmLEuqqymq0lHlfLHg2GU6giy02hHYTQ2rVrzczMKuhlqZycnHbt2t2/f3/KlCmVUA4qj1r5zFaETTw6YxLxoJV5qGKX2BdQhNC+ffsAgH4EJya5efNm3KnbE7UsNLEnpEdXk6j7cnD48OF4tRP+77hx44jT4oaScrCsrGz16tW9evUaPHiwra2tj4/P/fv3xaboHvEVLiMjIzAwsFevXg0aNGjZsuWhQ4ewfFhYmPvf/3x8fI4dO4Y7r1+/PnLkyF69eu3cuRP3SKrn5+dHRER07NhxwYIFmZmZfn5+tWrVatq0KV5qSvwpKCiYPXu2q6urr6+vq6vr4MGD6XJQ3ehiYmJ8fHzI4rb//ve/X3zxxY4dOxBCeP3KypUrydDixuvXr0mngBLDk2+//faLL75wd3c/fPgwQigvL2/JkiW9e/d2d3cnv3iRl5c3ceLEUX//69evH17rJqtYUFAQGRnZuXPnOXPmnD9/3sbGxtra+s6dOwxnVKmQuHDjwYMH7u7u7dq1A4BmzZq5u7vj1XgMywghUg7++uuvrVu3NjIycnJyIqWYqqGvXbs2YcIEMzMz+o+fly9fBgcHe3h4dOnSpVWrVlFRUcRDtg/ff//9X3/9RYQPHDiQmppKNsUNSfIIIUmvxOrK00Csi3s0iFT22Nm0aZOxsTEA2NjYuLu7BwcHq4pIy+OLrS4ZsqyK5OlC0pRgjmSxSGa1qrTECxgYJ0/GxCGEGHsFbuPQ8vPz586d6+Pj4+HhYWdnN2/ePPKuvWxc2AKDm6okl6RKd37++ef//ve/6R5BW+ElQKCFN0eNGnXw4EGEkMJykIFUe3piD7OysgIDA0ePHj158uT27duvW7fu0KFDP/744927d1XlDOPUtH379l69erm7u3t6epIL0O+//x4QEODh4XHkyBHsAGMS2QcOY2hsma0uDl+yh3EBRQi5uroCwLp16yR1BZ26OlHjFf+S9Qn7EFZ4WAncZmzquBzMy8vT19eny0EjI6M3b96o8kBJOThv3jxjY+OXL18ihFJTU/X19T08PFQZxP2CK9yTJ08cHBySkpIQQvn5+T179gSAn376CQvj+mz69Om0zQULFowePRr3qFLfs2dPv379ACAgIMDX13fnzp2bNm2qVatWvXr1SFlQUlLi5uY2bNgw/HZbWlraBx98QJeDGkRH+0naeXl5GDuJi+xS1RBQYnuyceNGAFi/fj2xNmzYMHpRzsSJE9esWYP3XrhwoXbt2rjNVoyKisI35/39/UeMGIFf9YiLi2M4o0qFOIYb5eXlhYWFMTExALBo0aLCwsKioiKEEMMyKQf9/f1dXV1DQkI6duwIADVr1sSLxCWH3rdv3+rVq01MTOgb0i9evLC3t9++fTt2ZuDAgfRNR7YPgkBkNyXJ37lzR+yVpCm10kBsQbNIZY+d0tLS2NhYAFi4cGFJSUlpaalkRFoeX7Lq4nhlVVSdLsSmxBHJYpHMasm0jIuLY2c7e+IYe8VuI4QKCgrat29PbuX+/vvvNWvWdHZ2xmdC2bjwm4WMs7RkkouR0j3l5eVLly7t168fPvDpXYK27CVAII838ZvduK2kHGQg1Z6e2MPCwsJWrVr5+/vjXXv37gUAOzu7UaNGnTp1SlXOsE9N+Pmsj48PPdzq1atXrFiBexjJL3vgsIeWVadd0qydk5ODr6GCGzqaWRNrqcphBjT2IazksBK7wejRcTn47NkzuhbE7ezsbFUeKCkHO3Xq1KRJE2KhSZMmjRo1IpuSDcEVzt/ff968eUTy+PHjANCuXTvc8/z581q1arVu3ZoIIITat29Pbskw1E+ePAkAvXv3Li4uxuoBAQEAQNavhIeHm5iYZGVlEeNjx46ly0ENoiOm6AZeTsRY9EAL47aAEtuTQ4cOCcrBGTNm0OVg06ZNly9fTkYZPnw4bssqxsXFAUCrVq0wwydPniCE2M5IqpCh6capU6cED4vZlvHdwSlTpmAjZWVlI0aMAADyF4iqofEL4+TPAH9///bt2xNPdu3aBQDjx4/HPWwfiJbChiryCCGBV5IG1UoDsQWNI5U9dk6fPo1LeXpQQURaHl+y6vTQuC2rwjhdiK2J50gWC0JInNWq0pKRaeyJY+8Vuz179mwzMzNyGsRv7gNAaGgojlo2LjY3RpJLUj169Ch+WoLPLeJX62gt2UsALYzbT548cXJyIpc2JeUgA6n29MQefvfdd/SfoGVlZZaWlvXr1yeSkjnDSBj8nb+6des2bNiQ/nZPz549CQfGJMoeOOyhZdVJXBo3rl+/jisW8jiImHrx4sWqVavatm3b7O9/Y8eOvXHjBtmrsKEqhxnQZC+FsoeVQt+wmI7LQfLIkhSFXbt2ZTikpBxMSEjAf+kihP74448PP/zQwsKCYRMhRF/hSkpKatWq1b1795H/++ft7W1ubm5paUmeuOODmXz85ffff8efJkEIsdXPnDkDAPPnzyf+LF++HABiYmLwbd6GDRt27tyZ7EUICRZMaBAdbY20r169ipnT7w6TvZINmhJCiO2JbFXXpk0bIyOjlStX4s/43bt3Dw8qq3jhwgUAmD17Nu0k2xlJFVqdtMUXTrZl8rCYWHj27JmJiYmxsTG+ya1qaHzLGZeDeXl5RkZGkydPJkYQQmlpaeQcyvaB1lLSVkUeIUR7pcqUWmkgMKJNpOxjByEkWQ7SEZWVlWlzfClRF8Qrq8I+XQis4U06IoSQLBbJclBVWqrKNPbEsfeK3X7z5o2lpaXgVH/r1i0AwC/Iy8Yly42R5JJUEULFxcWHDh366KOPAGDEiBGqxHA/4xIgqdi/f/9z586RXbLlIAOp9vSIG3QDv0Pzww8/kM4OHToAALk3IZkzqhKGGJkzZw4AkOfviYmJZD0YYxJLS0sr+VAlDitvXLlyBV9DSSUg0N2yZQsANG7cmFQOAgH2pmQOM6DhUdgzouR0wfaK3qv7cjA1NdXe3h5jbd269e3bt+nxBG0l5SCuqw4cOODj4xMWFta8eXNzc3OBHcEmfYXDX27DKzwEYmTz4cOHxsbGpG4bPXo0WRvBVj979qygHKSrPfzXhre3NxlIXA5qEB1tjbQzMzMxc/HHU4iMoEFTwrvKyspUcZat6k6cOFGzZk0AaNiw4YYNG0jpI6uYkJAgLgfZWFSpCAKUvHCyLYvLQYRQy5YtAQB/nkbV0DTMxMRE/JRT7A/pYaAmMgobqsgL/i5SZY32HMso902bSNnHjqpykPZWy+NLoTrNTVaFfbqgTZE2HRFCSBaLZFarSktV2c6eOPZe7Dnt9rVr1/BDEhIUbuCFMfjT9+y4ZLkxklwwqGDzzp07NWrUMDU1FfQLNhmXAIEkXlLi7u5+hPrXv39/APjmm2+OHDlCVkzSigyk2tOjByLtiIgIAFi8eDHpcXR0rFOnDjkzq8oZ9uF///59AwMDV1dXbDYwMJC89MaYRNkDB1tTNbRCdRKpZo2srCw9PT0A2LRpk6QF/FzRyclJcq9sp2QOM6ARg6qwKDxdEDuyDd2Xg/jPsqSkpD/++INknio/lJSDd+/edXJymjZtGl4C0qZNG7XKwZSUFMHjQklnRo8eDQCxsbHZ2dk2NjZkvSNbnX2Ow4ufXFxc6BHpehEhpEF0tDW67eDgAAAhISF0J6NNn9BlPZGt6hBCt27d8vX1xVVpp06d8BMEWUXJsxIbi6SKZKTiu4Nsy5LlYPfu3QEAv4WjamgaJv6zm3FDgu2DZCDsTknympWDavmmTaTsY0dJOajl8aVEXYBdVoV9uhBYw5t05ig8v4uzWlVaqppN9sSx94rdjo+PBwBHR0dBgE2bNiUHDnu6lXBTleSCQcWbeOUuWcghFsA9qi4BYvkhQ4bgs5zkf9PT08UqDKTa0xMPh1fJf/rpp40aNcK3A69du2ZgYIBfOsTykjmjKmHoIQYMGAAAycnJr169wu/n4b2MSZQ9cNgXICXqtIcat9u3bw8Affv2lbRw4sQJAOjUqZPkXiWd4hxmQMMG2TPCPqyUuETLVEg5SA/AbrPLwY0bN5aUlNjZ2bm5uRE76paDL168wMtHBL968vPPPxObCKG//vrLwMCgR48emzdvph9cstXZk5GUlAQA9evXp1+5p8tBzaKj3abb+BPKH3/8Mall6b24/dtvv5FO+jok68nhw4fZawfJDzRdvHgR305buHAhQkhWUXxWknVGrEKCEjQEF05Zy5LloJ2dnY2NDbasamga5oMHDwCgbt26gisQfnAj64MgBNlNVeQ1KAfV9U2bSNnHjpJyUMvjS1ZdTF5WhX26EBsUz5EsFuV3BxmzyZ449l4cBZ3wGRkZAGBqakp+7xHLNG7cmCz7Zscly42R5JJU6c6ZM2daW1vTPZJtVZcAsfCdO3cu//Mffq9u3759ly9fljz9MpBqT0/sIe559OhR27ZtBw8ePHfu3MDAQME6RXJ12gAAEUBJREFUIvGpjJEw9BB40eGYMWM2bNiwb98+sosxibIHDntoWXXig5YN/KEZQ0NDyaeaWpaDkjnMgIbXqrHrH/ZhpS6NKi4HFy5cCADTpk0T+x0dHb1r167k5GT86i4R+PTTT83MzMimZIM+VSGE8JqJ6dOnk0f+GRkZY8eOFejiv/kaNGgg+H1Yhjp7MkpKSurWrQsA9DGDy0H8/q9m0QncJptv3rzBP/pHr2UkexFCGzZsoL/OT1OS9QQvWV2wYAEx6O/vDwAXLlzAPQEBAWTX48ePDQ0NBw4ciBCSVRSflWSdEauQoQWNX3/9lf4MtaxlcTl4//59Q0ND8paMqqFpmAghfKd22bJlxJ+kpKSlS5cihGR9ICoKG6rIi0sNSYO05xr4pnGk7GNHcrWZICItjy9ZdTEuJSqM04XYoCAihXcHBVmNF/6KV1ywZ5MxcewExlHQaYMQwr9tQ5/ocnNz9fX1yRlDdrrZ3BhJLkmV7uzVqxd5o4XuF7dVXQLEkoIe2bWDbKTa0xP4g1/7cHZ2Jh8CEwuIT2XshKEtODo61qpVy9nZWVD7qppE2QOHPbSsOu2blm0vLy+88oG+iYNtalkOqsphVdCUXCxkDyu1aFRxORgUFAQAffr0IYUavsu9d+/eOnXqZGVlPXv2TF9f39zc/MKFC+np6VOnTrW0tNTX14+NjaU/5CaIGX8fhKyZPXnyJF4T0KlTp2XLls2cObNJkybXrl0TaOGMFN8oZqgfPXoUAOiP1CxduhQAyFLFTZs24RtF+Cvn9+7dc3JyAoApU6akpaVpFp3AbXozIyPD1tYWAIKDg0n4GGloaKiAGE1J1pNHjx7p6+s3b9781q1bGRkZs2bN6tatGwCsWLECn3E++ugj/AIN/pvG3Nz822+/RQjJKuK/NUeNGkUCkXVGrEJ0BQ38eYUJEybgflnLuByk30P38/NzdXUl36pQNTQNEyH0008/4QdJI0aM2Llz54wZM1q0aIFfb5T1QRCC7KYq8gghgVeSpmgZDXzTOFLZYwc/RnFxcbl169bcuXPxKYL2FiGk5fHFVpfEJavCOF1IGhREJIsF/7g2AJCsRghJpiV7NhkTx05gHIXA7cuXL9eoUcPBwSEnJwcLrFu3zsbGJjc3F2/KxsXmxkhymmp5efns2bPXrFlDxt2+fbuLi4vgPj2tQrdVXQJoGcm2knKQAVx7emKvDhw4gH+vOSwsbN26dZs3b969e3dCQgK51Ipzhp0w9BD4PIl/ro3uZ0wi+8CRHZqtTvugZbuwsPCLL74AgIEDB5Iswjbxky6NHxarymEGNFkssoeVWjSqrBxMSEgIDQ3FLx/gBw0N/v5nYWGBv1zYo0cPHMmSJUtwMffZZ5+lpqbiL7n069dPcsXuq1evli5damBggKeTvPx18OBB/LOSAGBhYaHqfYuuXbsKHiJjHyTVY2JinJ2d8ePgjRs35ubmbtmypXHjxvgrNuT7f0uWLDEyMsJFYbdu3UJCQgwMDLy9vWNjYxFCakWnZGqzs7OnTJliYWFRo0aNHj16DB8+/PPPP/f29qafFEhSkvVk5syZuMRp1KjR+fPnZ8yYYWxsPHToUHyD0M7O7oMPPpgyZcru3bu//PLL4OBg8nSeoRgdHY3rY2Nj48WLF5PvQTCcUaUigFNQULBhwwb8XqGZmVl4ePivv/4qCzwrK2vcuHEmJiZdu3adP39+7969x40bRzJNcujnz58vWbIEp9ygQYPILwR+9913eCk9/twX/fP2jOgEUSjZlCSvyivaoGZpQFvAbQ0iPXLkiOyxU15ePmjQIAD48MMPr1y5oioiLY8vtro4WJxCjCMaISR5uhCbEkcke0qRzGrJtMTDsTONMXEIIVV7xW7jsU6dOtWkSRM7O7tFixaNGDGiT58+jx49wrtk48JiDG6SSY616P8WFBQ0a9YMAOrUqePh4dGjR485c+YIHmHT8uK2qkuAWJLuUVIOMpDiBQBa0qP9QQg9fvwYL9oRLHDs1atXSUmJqpxhJwwZIi8vz8rKinw+gvSzk599rMkOzVanfdC+ffDgQScnJ0tLy6CgoG+//Xbp0qVeXl7m5uZ+fn74A8YaDMHIYUbmM7AoPKyUu1pl5aByF/GvSpOb3sXFxYKHuQpNFRYWxsfHnz59Oi8vT1IlOzv7k08+IUWMQEZWXSBPbz5//vzUqVP4Daw7d+4IflXl6dOn2kdHD4d/YDsxMfHYsWNnzpzJyMgQ7FW1KetJSkrK6dOn8Z/aqamp+J1BbO3Vq1dFRUWXL1+OjY3FL+HSozAUaTG6LesMLaxWW9Zybm5ufHz8f//7X/oOq1pDYOGcnJy4uLiLFy+Kk0rWB+XDsckrt0MkNfCt4iJ98OAB/TU74iTd0PL4YqvTA5G2rIo2pwsyik4a7NlkTBz+GUxVCSzpW1lZWWJiYmxsrGShIKki6FTFTXmSl5aWJicnnz9/Pi0tTfy8TzCcYJN9CRAIa7bJAK49Pdqlx48ff/XVV69fv759+/aVK1fi4+NPnDjx3Xff2dvbnzhxgpYUtNkJQ4TJd3lJD2momkSEEPvAkR2arU4c0FXj+fPn58+fj46OPn78+NWrVwVPxtUdhZ3DDGiyWNT1RJX8u1EOqvJet/3r169fsmSJbm1ya5wAJ8AJcALvBIFqcwkoKSlxcnIiq3do+AsXLjx9+jTdw9ucACbwvpeDBQUFmzdvjomJuXDhgp2dHf4pPJ4cnAAnwAlwAu8DgWp5CcAvPcyYMYMsesZT+fvvvw8YMEDdm6bvQxrwGBFC73s5iBeHAoChoWF0dDTPCU6AE+AEOIH3h0C1vARkZ2f36NEDr6H09PQcPXr0V1991alTpwEDBrx69er9mVweqVoE3vdysLCwcMaMGePGjbt69apa4LgwJ8AJcAKcwLtOoBpfAs6ePTt//vzhw4f7+fktXLiQ/srYuz5r3P+KIPC+l4MVwZTb5AQ4AU6AE+AEOAFO4B0iwMvBd2iyuKucACfACXACnAAnwAnongAvB3XPlFvkBDgBToAT4AQ4AU7gHSLAy8F3aLK4q5wAJ8AJcAKcACfACeieAC8Hdc+UW+QEOAFOgBPgBDgBTuAdIsDLwXdosrirnAAnwAlwApwAJ8AJ6J4ALwd1z1Rs8cSJE5MnTx42bNiKFSv4Z5/EfHgPJ8AJcAKcACfACVQhAV4OViz88vLyESNGtGvXzs/Pz9HREQCsra0zMzMrdlRunRPgBDgBToAT4AQ4AcUEeDmoGJVGgps3b965cydWLS8vHzduHAAsX75cI2NciRPgBDgBToAT4AQ4Ad0T4OWg7pnSFrdv305vpqWlAcC4cePoTt7mBDgBToAT4AQ4AU6gCgnwcrBS4V+5cgUAfvjhh0odlQ/GCXACnAAnwAlwApyAagJVVg6+ePEiMjLSy8tr0qRJmZmZQUFB1tbWDg4Oe/fuRQglJCQMHDiwfv369vb2cXFxtP+7du0aOnRoSEiIm5vbyJEjc3Nz8d5jx45169atc+fO3t7eR48exZ0XLlzw9vb28vJKT09HCL169Wry5MkTJ04cOHBg165dQ0NDi4qKsOSbN2+OHDni6+sbHh4eFxdna2vbokWLly9f0kOTtiofiICqxpgxY2bMmKFqL+/nBDgBToAT4AQ4AU6g8glUWTmYnJw8ffp0AOjQoUNgYGBMTExiYqKjo6OpqemKFSumTp2akJAQFxfXqFGjBg0aFBcXYzQbN24EgLt37yKEcnNza9SoMXjwYEJtxYoVAODv7096EEJffvnlkSNHEELp6enW1tbbtm3De69du2Zpaeno6JiTk4MQioqKateuHQAMHz588uTJgwYNMjAwSEtLo03hNtsHsTzuKSoqmj59eqNGjQTVrSp53s8JcAKcACfACXACnEDlEKiychAhhBfSubi4kFC3bdsGACNGjCA9U6ZMAYCEhATc4+3tbWhoSL7V4uLiYmlpSYSzs7PNzMwsLCzILcPc3NzmzZuXlpYihDw9PVu0aFFeXk7kt2zZAgATJ07EPTt37gSAvn374k1cJhJh0mD7QMToRkxMjLOzs4GBAQDo6ent2LGD3svbnAAnwAlwApwAJ8AJVCGBqiwH7927BwD9+/cn8UdHRwPAnDlzSM/y5csB4PDhw7jn8ePHly9fxu0XL160bt1aX1+fCCOEZs+eDQDr16/HnVFRUdhaRkYGAAwZMoQWfv36tZGRkampKa4RDx48CABhYWG0jLgt64NYBfc8ffq0V69eAGBmZkYqWlXCvJ8T4AQ4AU6AE+AEOIHKIfB2lYPHjh0TlIOrVq0CALygkBC5fPnynDlz1q5dix/vkn6E0JMnT0xMTJo0aVJSUoIQ6tevH37ge/LkSQDw8/OjhRFCNjY2APDXX38hhHA5uGzZMoGM5CbDB0l53FlWVubp6QkA/JExgxLfxQlwApwAJ8AJcAKVSeAdKwezs7NHjhw5atSovLw8hFCPHj0AhCGMGTMGAPbt2/f8+XNXV1dM8+jRowDQvXt3AVwXFxcAePjwofJyUIkPglHozZ9//hkAfv75Z7qTtzkBToAT4AQ4AU6AE6gqAsJaqjL9ED8slr072LNnzyZNmuC1gKrKwVu3bunr67dt23bz5s1klV56ejoA1KtXj+jiSB0dHS0sLHBb4d1BJT4wMMbHxwPA/fv3GTJ8FyfACXACnAAnwAlwApVG4G0sB2fPnk3ipx8WP3z4EADatWtH9nbs2BEA6LdD8K7BgwcDQJMmTV6/fo17ysvLsfCJEyeIel5enqmp6bRp03CPknJQuQ9kFEFjw4YNXbp0oTv5OkKaBm9zApwAJ8AJcAKcQCUTqMpyMCUlBQDc3NxIzLggo3+0IzQ0FADw12EyMzP19PTwUsKUlJSVK1c2btwYABITE2/dukWMIISwZcFKwaSkpBo1ajg7OxcWFmLh8PBwW1tb8gZxREQEALC/C6jcBzzElClTVq5ciR9tI4QePnzYunVr/BFELHDmzBkjI6NBgwbR/vM2J8AJcAKcACfACXAClUagysrBc+fOeXt7A4CxsfGmTZuys7OPHTvm5OQEAFZWVlu3bi0qKtqzZw9+1aNVq1aHDh1CCM2fPx/+/temTZukpCT83nGdOnXi4+MFyBwcHH799VdB540bN5ydnTt27Lhy5coJEyb4+fmRO3ORkZH29vZ49G+++QavJhSo403lPpSVlTk6OgJAgwYNpkyZEhISsnLlyhcvXtBmY2JiAKBXr150J29zApwAJ8AJcAKcACdQaQSqrBzUOMKMjIwHDx4Q9fT09IKCArKJGzk5OQ4ODmVlZYJ+vJmbm3vjxg3yaWtJGXanEh+whZKSkt9//3/t27EJhEAQBVBsxpIsyNjI2AKMjQwMN7outgwTuUA4Bg7E5IJzXjbggvw3yYfV17ZttdbvS+3zTK31/A/6+qWeEiBAgAABAgR+IfB/dfCOwjiOwzDcOekMAQIECBAgQCC5wHPq4L7v0zSt61pKadv2cwucfMHiEyBAgAABAgSuBZ5TB0sp52eFTdPM83wd21MCBAgQIECAAIFT4Dl18DiOvu+7rluWxXYJECBAgAABAgRuCjynDt4M7BgBAgQIECBAgEAUUAejhpkAAQIECBAgkE5AHUy3coEJECBAgAABAlFAHYwaZgIECBAgQIBAOgF1MN3KBSZAgAABAgQIRAF1MGqYCRAgQIAAAQLpBNTBdCsXmAABAgQIECAQBdTBqGEmQIAAAQIECKQTUAfTrVxgAgQIECBAgEAUUAejhpkAAQIECBAgkE5AHUy3coEJECBAgAABAlFAHYwaZgIECBAgQIBAOgF1MN3KBSZAgAABAgQIRAF1MGqYCRAgQIAAAQLpBNTBdCsXmAABAgQIECAQBd4IcpPiIje63gAAAABJRU5ErkJggg==;" vertex="1" parent="1">
          <mxGeometry x="630" y="49.47000000000003" width="458" height="150.53" as="geometry" />
        </mxCell>
        <mxCell id="kbTYuHjdxB3AZq6WOcbB-11" value="" style="swimlane;startSize=0;fontSize=9;" vertex="1" parent="1">
          <mxGeometry x="280" y="300" width="440" height="750" as="geometry">
            <mxRectangle x="280" y="300" width="50" height="40" as="alternateBounds" />
          </mxGeometry>
        </mxCell>
        <mxCell id="kbTYuHjdxB3AZq6WOcbB-19" style="edgeStyle=orthogonalEdgeStyle;rounded=0;orthogonalLoop=1;jettySize=auto;html=1;fontSize=9;" edge="1" parent="kbTYuHjdxB3AZq6WOcbB-11" source="kbTYuHjdxB3AZq6WOcbB-13" target="kbTYuHjdxB3AZq6WOcbB-17">
          <mxGeometry relative="1" as="geometry" />
        </mxCell>
        <mxCell id="kbTYuHjdxB3AZq6WOcbB-13" value="&quot;Ingrese tipo de multa (1,2,3,o 4) y valor a pagar: &quot;" style="shape=trapezoid;perimeter=trapezoidPerimeter;whiteSpace=wrap;html=1;fixedSize=1;fontSize=9;" vertex="1" parent="kbTYuHjdxB3AZq6WOcbB-11">
          <mxGeometry x="100" y="20" width="240" height="30" as="geometry" />
        </mxCell>
        <mxCell id="kbTYuHjdxB3AZq6WOcbB-21" style="edgeStyle=orthogonalEdgeStyle;rounded=0;orthogonalLoop=1;jettySize=auto;html=1;entryX=0.5;entryY=0;entryDx=0;entryDy=0;fontSize=9;" edge="1" parent="kbTYuHjdxB3AZq6WOcbB-11" source="kbTYuHjdxB3AZq6WOcbB-17" target="kbTYuHjdxB3AZq6WOcbB-20">
          <mxGeometry relative="1" as="geometry" />
        </mxCell>
        <mxCell id="kbTYuHjdxB3AZq6WOcbB-17" value="&lt;span style=&quot;background-color: rgb(255 , 255 , 255)&quot;&gt;tipo, valorMulta&lt;/span&gt;" style="verticalLabelPosition=middle;verticalAlign=middle;html=1;shape=trapezoid;perimeter=trapezoidPerimeter;whiteSpace=wrap;size=0.23;arcSize=10;flipV=1;labelPosition=center;align=center;fontSize=9;" vertex="1" parent="kbTYuHjdxB3AZq6WOcbB-11">
          <mxGeometry x="170" y="70" width="100" height="30" as="geometry" />
        </mxCell>
        <mxCell id="kbTYuHjdxB3AZq6WOcbB-23" style="edgeStyle=orthogonalEdgeStyle;rounded=0;orthogonalLoop=1;jettySize=auto;html=1;entryX=0.5;entryY=0;entryDx=0;entryDy=0;fontSize=9;" edge="1" parent="kbTYuHjdxB3AZq6WOcbB-11" source="kbTYuHjdxB3AZq6WOcbB-20" target="kbTYuHjdxB3AZq6WOcbB-22">
          <mxGeometry relative="1" as="geometry" />
        </mxCell>
        <mxCell id="kbTYuHjdxB3AZq6WOcbB-20" value="&quot;Ingrese el motivo de la infraccion: &quot;" style="shape=trapezoid;perimeter=trapezoidPerimeter;whiteSpace=wrap;html=1;fixedSize=1;fontSize=9;" vertex="1" parent="kbTYuHjdxB3AZq6WOcbB-11">
          <mxGeometry x="100" y="120" width="240" height="30" as="geometry" />
        </mxCell>
        <mxCell id="kbTYuHjdxB3AZq6WOcbB-29" style="edgeStyle=orthogonalEdgeStyle;rounded=0;orthogonalLoop=1;jettySize=auto;html=1;entryX=0.5;entryY=0;entryDx=0;entryDy=0;fontSize=9;" edge="1" parent="kbTYuHjdxB3AZq6WOcbB-11" source="kbTYuHjdxB3AZq6WOcbB-22" target="kbTYuHjdxB3AZq6WOcbB-24">
          <mxGeometry relative="1" as="geometry" />
        </mxCell>
        <mxCell id="kbTYuHjdxB3AZq6WOcbB-22" value="&lt;span style=&quot;background-color: rgb(255 , 255 , 255)&quot;&gt;motivo&lt;/span&gt;" style="verticalLabelPosition=middle;verticalAlign=middle;html=1;shape=trapezoid;perimeter=trapezoidPerimeter;whiteSpace=wrap;size=0.23;arcSize=10;flipV=1;labelPosition=center;align=center;fontSize=9;" vertex="1" parent="kbTYuHjdxB3AZq6WOcbB-11">
          <mxGeometry x="170" y="170" width="100" height="30" as="geometry" />
        </mxCell>
        <mxCell id="kbTYuHjdxB3AZq6WOcbB-28" style="edgeStyle=orthogonalEdgeStyle;rounded=0;orthogonalLoop=1;jettySize=auto;html=1;entryX=0.5;entryY=0;entryDx=0;entryDy=0;fontSize=9;" edge="1" parent="kbTYuHjdxB3AZq6WOcbB-11" source="kbTYuHjdxB3AZq6WOcbB-24" target="kbTYuHjdxB3AZq6WOcbB-25">
          <mxGeometry relative="1" as="geometry" />
        </mxCell>
        <mxCell id="kbTYuHjdxB3AZq6WOcbB-24" value="&quot;Ingrese la gravedad de la infraccion (&#39;L&#39;,&#39;M&#39;,&#39;G&#39;): &quot;" style="shape=trapezoid;perimeter=trapezoidPerimeter;whiteSpace=wrap;html=1;fixedSize=1;fontSize=9;" vertex="1" parent="kbTYuHjdxB3AZq6WOcbB-11">
          <mxGeometry x="100" y="230" width="240" height="30" as="geometry" />
        </mxCell>
        <mxCell id="kbTYuHjdxB3AZq6WOcbB-43" style="edgeStyle=orthogonalEdgeStyle;rounded=0;orthogonalLoop=1;jettySize=auto;html=1;entryX=0.5;entryY=0;entryDx=0;entryDy=0;fontSize=9;" edge="1" parent="kbTYuHjdxB3AZq6WOcbB-11" source="kbTYuHjdxB3AZq6WOcbB-25" target="kbTYuHjdxB3AZq6WOcbB-38">
          <mxGeometry relative="1" as="geometry" />
        </mxCell>
        <mxCell id="kbTYuHjdxB3AZq6WOcbB-25" value="&lt;span style=&quot;background-color: rgb(255 , 255 , 255)&quot;&gt;gravedad&lt;/span&gt;" style="verticalLabelPosition=middle;verticalAlign=middle;html=1;shape=trapezoid;perimeter=trapezoidPerimeter;whiteSpace=wrap;size=0.23;arcSize=10;flipV=1;labelPosition=center;align=center;fontSize=9;" vertex="1" parent="kbTYuHjdxB3AZq6WOcbB-11">
          <mxGeometry x="170" y="290" width="100" height="30" as="geometry" />
        </mxCell>
        <mxCell id="kbTYuHjdxB3AZq6WOcbB-38" value="gravedad!=&#39;L&#39; &amp;amp;&amp;amp; gravedad!=&#39;M&#39; &amp;amp;&amp;amp;&lt;br&gt;gravedad!=&#39;G&#39;&lt;br&gt;&amp;nbsp;" style="rounded=0;whiteSpace=wrap;html=1;fontSize=9;" vertex="1" parent="kbTYuHjdxB3AZq6WOcbB-11">
          <mxGeometry x="105" y="350" width="230" height="40" as="geometry" />
        </mxCell>
        <mxCell id="kbTYuHjdxB3AZq6WOcbB-69" value="" style="edgeStyle=orthogonalEdgeStyle;rounded=0;orthogonalLoop=1;jettySize=auto;html=1;fontSize=11;" edge="1" parent="kbTYuHjdxB3AZq6WOcbB-11" source="kbTYuHjdxB3AZq6WOcbB-37" target="kbTYuHjdxB3AZq6WOcbB-56">
          <mxGeometry relative="1" as="geometry" />
        </mxCell>
        <mxCell id="kbTYuHjdxB3AZq6WOcbB-37" value="" style="rounded=0;whiteSpace=wrap;html=1;fontSize=9;" vertex="1" parent="kbTYuHjdxB3AZq6WOcbB-11">
          <mxGeometry x="105" y="390" width="230" height="90" as="geometry" />
        </mxCell>
        <mxCell id="kbTYuHjdxB3AZq6WOcbB-49" value="" style="edgeStyle=orthogonalEdgeStyle;rounded=0;orthogonalLoop=1;jettySize=auto;html=1;fontSize=9;" edge="1" parent="kbTYuHjdxB3AZq6WOcbB-11" source="kbTYuHjdxB3AZq6WOcbB-45" target="kbTYuHjdxB3AZq6WOcbB-47">
          <mxGeometry relative="1" as="geometry" />
        </mxCell>
        <mxCell id="kbTYuHjdxB3AZq6WOcbB-45" value="&quot;Ingrese una gravedad valida(&#39;L&#39;,&#39;M&#39;,&#39;G&#39;): &quot;" style="shape=trapezoid;perimeter=trapezoidPerimeter;whiteSpace=wrap;html=1;fixedSize=1;fontSize=9;" vertex="1" parent="kbTYuHjdxB3AZq6WOcbB-11">
          <mxGeometry x="105" y="400" width="230" height="20" as="geometry" />
        </mxCell>
        <mxCell id="kbTYuHjdxB3AZq6WOcbB-47" value="&lt;span style=&quot;background-color: rgb(255 , 255 , 255)&quot;&gt;gravedad&lt;/span&gt;" style="verticalLabelPosition=middle;verticalAlign=middle;html=1;shape=trapezoid;perimeter=trapezoidPerimeter;whiteSpace=wrap;size=0.23;arcSize=10;flipV=1;labelPosition=center;align=center;fontSize=9;" vertex="1" parent="kbTYuHjdxB3AZq6WOcbB-11">
          <mxGeometry x="170" y="450" width="100" height="20" as="geometry" />
        </mxCell>
        <mxCell id="kbTYuHjdxB3AZq6WOcbB-50" value="&#39;L&#39;&lt;br&gt;&lt;br&gt;sumaL+=&lt;br&gt;valorMulta" style="rounded=0;whiteSpace=wrap;html=1;fontSize=9;verticalAlign=top;" vertex="1" parent="kbTYuHjdxB3AZq6WOcbB-11">
          <mxGeometry x="122.5" y="560" width="65" height="60" as="geometry" />
        </mxCell>
        <mxCell id="kbTYuHjdxB3AZq6WOcbB-77" value="" style="edgeStyle=orthogonalEdgeStyle;rounded=0;orthogonalLoop=1;jettySize=auto;html=1;fontSize=11;" edge="1" parent="kbTYuHjdxB3AZq6WOcbB-11" source="kbTYuHjdxB3AZq6WOcbB-53">
          <mxGeometry relative="1" as="geometry">
            <mxPoint x="220" y="650" as="targetPoint" />
          </mxGeometry>
        </mxCell>
        <mxCell id="kbTYuHjdxB3AZq6WOcbB-53" value="&#39;M&#39;&lt;br&gt;&lt;br&gt;sumaM+=&lt;br&gt;valorMulta" style="rounded=0;whiteSpace=wrap;html=1;fontSize=9;verticalAlign=top;" vertex="1" parent="kbTYuHjdxB3AZq6WOcbB-11">
          <mxGeometry x="187.5" y="560" width="65" height="60" as="geometry" />
        </mxCell>
        <mxCell id="kbTYuHjdxB3AZq6WOcbB-54" value="&#39;G&#39;&lt;br&gt;&lt;br&gt;sumaG+=&lt;br&gt;valorMulta" style="rounded=0;whiteSpace=wrap;html=1;fontSize=9;verticalAlign=top;" vertex="1" parent="kbTYuHjdxB3AZq6WOcbB-11">
          <mxGeometry x="252.5" y="560" width="65" height="60" as="geometry" />
        </mxCell>
        <mxCell id="kbTYuHjdxB3AZq6WOcbB-56" value="gravedad" style="triangle;whiteSpace=wrap;html=1;fontSize=9;flipH=0;flipV=0;direction=north;verticalAlign=bottom;" vertex="1" parent="kbTYuHjdxB3AZq6WOcbB-11">
          <mxGeometry x="120" y="530" width="200" height="30" as="geometry" />
        </mxCell>
        <mxCell id="kbTYuHjdxB3AZq6WOcbB-61" value="" style="endArrow=none;html=1;rounded=0;fontSize=9;" edge="1" parent="kbTYuHjdxB3AZq6WOcbB-11">
          <mxGeometry width="50" height="50" relative="1" as="geometry">
            <mxPoint x="120" y="580" as="sourcePoint" />
            <mxPoint x="317.5" y="580" as="targetPoint" />
          </mxGeometry>
        </mxCell>
        <mxCell id="kbTYuHjdxB3AZq6WOcbB-70" value="(tipo==4 || tipo==5) &amp;amp;&amp;amp; &lt;br&gt;(gravedad==&#39;G&#39;)" style="triangle;whiteSpace=wrap;html=1;fontSize=9;flipH=0;flipV=0;direction=north;verticalAlign=bottom;" vertex="1" parent="kbTYuHjdxB3AZq6WOcbB-11">
          <mxGeometry x="120" y="650" width="200" height="40" as="geometry" />
        </mxCell>
        <mxCell id="kbTYuHjdxB3AZq6WOcbB-72" value="clausura++" style="whiteSpace=wrap;html=1;fontSize=9;verticalAlign=middle;" vertex="1" parent="kbTYuHjdxB3AZq6WOcbB-11">
          <mxGeometry x="120" y="690" width="200" height="30" as="geometry" />
        </mxCell>
        <mxCell id="kbTYuHjdxB3AZq6WOcbB-62" value="" style="verticalLabelPosition=bottom;verticalAlign=top;html=1;shape=mxgraph.flowchart.on-page_reference;fontSize=9;" vertex="1" parent="1">
          <mxGeometry x="250" y="610" width="60" height="60" as="geometry" />
        </mxCell>
        <mxCell id="kbTYuHjdxB3AZq6WOcbB-63" value="" style="endArrow=none;html=1;rounded=0;fontSize=9;exitX=0;exitY=0.5;exitDx=0;exitDy=0;exitPerimeter=0;" edge="1" parent="1" source="kbTYuHjdxB3AZq6WOcbB-62">
          <mxGeometry width="50" height="50" relative="1" as="geometry">
            <mxPoint x="260" y="690" as="sourcePoint" />
            <mxPoint x="310" y="640" as="targetPoint" />
          </mxGeometry>
        </mxCell>
        <mxCell id="kbTYuHjdxB3AZq6WOcbB-64" value="" style="endArrow=none;html=1;rounded=0;fontSize=9;exitX=0.5;exitY=0;exitDx=0;exitDy=0;exitPerimeter=0;" edge="1" parent="1" source="kbTYuHjdxB3AZq6WOcbB-62">
          <mxGeometry width="50" height="50" relative="1" as="geometry">
            <mxPoint x="260" y="650" as="sourcePoint" />
            <mxPoint x="280" y="640" as="targetPoint" />
          </mxGeometry>
        </mxCell>
        <mxCell id="kbTYuHjdxB3AZq6WOcbB-67" value="1&lt;span style=&quot;white-space: pre&quot;&gt;	&lt;/span&gt;20" style="text;html=1;resizable=0;autosize=1;align=center;verticalAlign=middle;points=[];fillColor=none;strokeColor=none;rounded=0;fontSize=9;" vertex="1" parent="1">
          <mxGeometry x="255" y="620" width="50" height="20" as="geometry" />
        </mxCell>
        <mxCell id="kbTYuHjdxB3AZq6WOcbB-68" value="&lt;font style=&quot;font-size: 11px&quot;&gt;i&lt;/font&gt;" style="text;html=1;resizable=0;autosize=1;align=center;verticalAlign=middle;points=[];fillColor=none;strokeColor=none;rounded=0;fontSize=9;" vertex="1" parent="1">
          <mxGeometry x="270" y="640" width="20" height="20" as="geometry" />
        </mxCell>
        <mxCell id="kbTYuHjdxB3AZq6WOcbB-85" value="" style="edgeStyle=orthogonalEdgeStyle;rounded=0;orthogonalLoop=1;jettySize=auto;html=1;fontSize=11;" edge="1" parent="1" source="kbTYuHjdxB3AZq6WOcbB-78" target="kbTYuHjdxB3AZq6WOcbB-83">
          <mxGeometry relative="1" as="geometry" />
        </mxCell>
        <mxCell id="kbTYuHjdxB3AZq6WOcbB-78" value="&quot;Valor total a pagar de multas de tipo L: &quot;&lt;br&gt;sumaL&lt;br&gt;&quot;&quot;Valor total a pagar de multas de tipo M: &quot;&lt;br&gt;sumaM&lt;br&gt;&quot;Valor total a pagar de multas de tipo G: &quot;&lt;br&gt;suma G&lt;br&gt;&amp;nbsp;" style="shape=trapezoid;perimeter=trapezoidPerimeter;whiteSpace=wrap;html=1;fixedSize=1;fontSize=11;verticalAlign=middle;" vertex="1" parent="1">
          <mxGeometry x="362.5" y="1080" width="275" height="120" as="geometry" />
        </mxCell>
        <mxCell id="kbTYuHjdxB3AZq6WOcbB-79" value="" style="edgeStyle=orthogonalEdgeStyle;rounded=0;orthogonalLoop=1;jettySize=auto;html=1;fontSize=11;" edge="1" parent="1" source="kbTYuHjdxB3AZq6WOcbB-72" target="kbTYuHjdxB3AZq6WOcbB-78">
          <mxGeometry relative="1" as="geometry" />
        </mxCell>
        <mxCell id="kbTYuHjdxB3AZq6WOcbB-83" value="clausura&amp;gt;3" style="triangle;whiteSpace=wrap;html=1;fontSize=9;flipH=0;flipV=0;direction=north;verticalAlign=bottom;" vertex="1" parent="1">
          <mxGeometry x="400" y="1235" width="200" height="40" as="geometry" />
        </mxCell>
        <mxCell id="kbTYuHjdxB3AZq6WOcbB-88" value="" style="edgeStyle=orthogonalEdgeStyle;rounded=0;orthogonalLoop=1;jettySize=auto;html=1;fontSize=11;" edge="1" parent="1" source="kbTYuHjdxB3AZq6WOcbB-84" target="kbTYuHjdxB3AZq6WOcbB-87">
          <mxGeometry relative="1" as="geometry" />
        </mxCell>
        <mxCell id="kbTYuHjdxB3AZq6WOcbB-84" value="" style="whiteSpace=wrap;html=1;fontSize=9;verticalAlign=middle;" vertex="1" parent="1">
          <mxGeometry x="400" y="1275" width="200" height="50" as="geometry" />
        </mxCell>
        <mxCell id="kbTYuHjdxB3AZq6WOcbB-80" value="&quot;Clausurar Fabrica&quot;" style="shape=trapezoid;perimeter=trapezoidPerimeter;whiteSpace=wrap;html=1;fixedSize=1;fontSize=11;verticalAlign=middle;" vertex="1" parent="1">
          <mxGeometry x="432.5" y="1285" width="137.5" height="30" as="geometry" />
        </mxCell>
        <mxCell id="kbTYuHjdxB3AZq6WOcbB-87" value="F" style="ellipse;whiteSpace=wrap;html=1;aspect=fixed;" vertex="1" parent="1">
          <mxGeometry x="480" y="1360" width="40" height="40" as="geometry" />
        </mxCell>
      </root>
    </mxGraphModel>
  </diagram>
</mxfile>
